<svg xmlns="http://www.w3.org/2000/svg">
  <symbol id="logo-header" viewBox="0 0 176 19">
    <g>
      <path d="M14.2383 13.8281C14.2383 14.4766 14.1172 15.0352 13.875 15.5039C13.6406 15.9727 13.3242 16.3711 12.9258 16.6992C12.5273 17.0273 12.0664 17.2969 11.543 17.5078C11.0273 17.7109 10.4883 17.8711 9.92578 17.9883C9.36328 18.1055 8.79688 18.1836 8.22656 18.2227C7.66406 18.2617 7.13672 18.2812 6.64453 18.2812C6.16016 18.2812 5.65625 18.2617 5.13281 18.2227C4.61719 18.1914 4.10156 18.1328 3.58594 18.0469C3.07031 17.9609 2.5625 17.8477 2.0625 17.707C1.5625 17.5586 1.08984 17.375 0.644531 17.1562L0.621094 2.0625C1.05859 1.88281 1.52344 1.72266 2.01562 1.58203C2.50781 1.43359 3.00781 1.3125 3.51562 1.21875C4.03125 1.11719 4.54297 1.04297 5.05078 0.996094C5.55859 0.941406 6.05078 0.914062 6.52734 0.914062C7.08203 0.914062 7.64062 0.949219 8.20312 1.01953C8.77344 1.08984 9.32031 1.20703 9.84375 1.37109C10.3672 1.53516 10.8555 1.75 11.3086 2.01562C11.7617 2.27344 12.1562 2.59375 12.4922 2.97656C12.8359 3.35938 13.1016 3.80469 13.2891 4.3125C13.4844 4.82031 13.582 5.40625 13.582 6.07031C13.582 6.50781 13.5195 6.91797 13.3945 7.30078C13.2695 7.68359 13.0898 8.02734 12.8555 8.33203C12.6211 8.63672 12.3359 8.89844 12 9.11719C11.6641 9.32812 11.2852 9.48438 10.8633 9.58594C11.3711 9.71875 11.832 9.91406 12.2461 10.1719C12.668 10.4297 13.0234 10.7422 13.3125 11.1094C13.6094 11.4766 13.8359 11.8906 13.9922 12.3516C14.1562 12.8125 14.2383 13.3047 14.2383 13.8281ZM8.28516 7.14844C8.28516 6.92188 8.23828 6.73047 8.14453 6.57422C8.05078 6.41016 7.93359 6.27734 7.79297 6.17578C7.66016 6.07422 7.51172 6 7.34766 5.95312C7.19141 5.90625 7.05078 5.88281 6.92578 5.88281C6.76953 5.88281 6.61719 5.90625 6.46875 5.95312C6.32031 6 6.17578 6.05469 6.03516 6.11719L5.96484 8.71875C6.14453 8.71875 6.36719 8.70312 6.63281 8.67188C6.89844 8.64062 7.15234 8.57422 7.39453 8.47266C7.64453 8.36328 7.85547 8.20703 8.02734 8.00391C8.19922 7.79297 8.28516 7.50781 8.28516 7.14844ZM6.62109 10.9688C6.39453 10.9688 6.17578 10.9922 5.96484 11.0391L5.91797 13.7109C6.03516 13.7344 6.14844 13.7578 6.25781 13.7812C6.375 13.7969 6.48828 13.8047 6.59766 13.8047C6.76172 13.8047 6.94141 13.7891 7.13672 13.7578C7.33203 13.7188 7.51562 13.6484 7.6875 13.5469C7.85938 13.4375 8 13.293 8.10938 13.1133C8.22656 12.9336 8.28516 12.6953 8.28516 12.3984C8.28516 12.1016 8.22656 11.8594 8.10938 11.6719C8 11.4844 7.86328 11.3398 7.69922 11.2383C7.53516 11.1289 7.35547 11.0586 7.16016 11.0273C6.96484 10.9883 6.78516 10.9688 6.62109 10.9688ZM27.7148 8.53125C27.7148 9.21094 27.668 9.89062 27.5742 10.5703C26.2383 10.6562 24.9102 10.7969 23.5898 10.9922C22.2695 11.1797 20.9492 11.3672 19.6289 11.5547C19.832 12.1172 20.1484 12.5664 20.5781 12.9023C21.0156 13.2383 21.5352 13.4062 22.1367 13.4062C22.4492 13.4062 22.7891 13.3477 23.1562 13.2305C23.5312 13.1133 23.9023 12.9688 24.2695 12.7969C24.6367 12.6172 24.9883 12.4258 25.3242 12.2227C25.6602 12.0195 25.9492 11.8359 26.1914 11.6719L25.6289 16.9922C25.3242 17.2266 24.9922 17.4258 24.6328 17.5898C24.2812 17.7539 23.9141 17.8867 23.5312 17.9883C23.1484 18.0898 22.7617 18.1641 22.3711 18.2109C21.9805 18.2578 21.5977 18.2812 21.2227 18.2812C20.4492 18.2812 19.7422 18.1758 19.1016 17.9648C18.4609 17.7539 17.8789 17.4609 17.3555 17.0859C16.8398 16.7031 16.3867 16.2539 15.9961 15.7383C15.6055 15.2227 15.2812 14.6602 15.0234 14.0508C14.7656 13.4414 14.5703 12.7969 14.4375 12.1172C14.3047 11.4375 14.2383 10.75 14.2383 10.0547C14.2383 9.32812 14.3047 8.60156 14.4375 7.875C14.5703 7.14844 14.7695 6.44922 15.0352 5.77734C15.3086 5.10547 15.6484 4.48438 16.0547 3.91406C16.4688 3.33594 16.9492 2.83203 17.4961 2.40234C18.043 1.97266 18.6602 1.63672 19.3477 1.39453C20.043 1.15234 20.8086 1.03125 21.6445 1.03125C22.3398 1.03125 22.9727 1.12891 23.543 1.32422C24.1211 1.51172 24.6328 1.77734 25.0781 2.12109C25.5312 2.45703 25.9219 2.85938 26.25 3.32812C26.5859 3.79688 26.8594 4.3125 27.0703 4.875C27.2891 5.42969 27.4492 6.01953 27.5508 6.64453C27.6602 7.26172 27.7148 7.89062 27.7148 8.53125ZM23.0273 7.92188C23.0273 7.70312 23.0039 7.48047 22.957 7.25391C22.9102 7.01953 22.832 6.80859 22.7227 6.62109C22.6211 6.43359 22.4844 6.28125 22.3125 6.16406C22.1406 6.03906 21.9258 5.97656 21.668 5.97656C21.3555 5.97656 21.0781 6.0625 20.8359 6.23438C20.6016 6.39844 20.3984 6.60938 20.2266 6.86719C20.0547 7.11719 19.9141 7.39062 19.8047 7.6875C19.6953 7.98438 19.6133 8.25781 19.5586 8.50781L23.0273 8.17969V7.92188ZM40.5 12C40.5 13.0703 40.3125 13.9961 39.9375 14.7773C39.5703 15.5508 39.0625 16.1914 38.4141 16.6992C37.7734 17.1992 37.0195 17.5703 36.1523 17.8125C35.293 18.0469 34.3672 18.1641 33.375 18.1641C32.9922 18.1641 32.5703 18.1133 32.1094 18.0117C31.6562 17.9102 31.1953 17.7852 30.7266 17.6367C30.2578 17.4805 29.8047 17.3164 29.3672 17.1445C28.9375 16.9648 28.5547 16.7969 28.2188 16.6406L28.7344 12.0469C29.3984 12.4453 30.1328 12.75 30.9375 12.9609C31.75 13.1641 32.5469 13.2656 33.3281 13.2656C33.4766 13.2656 33.6562 13.2617 33.8672 13.2539C34.0781 13.2383 34.2773 13.2031 34.4648 13.1484C34.6602 13.0859 34.8242 12.9961 34.957 12.8789C35.0898 12.7617 35.1562 12.5938 35.1562 12.375C35.1562 12.2266 35.1094 12.1016 35.0156 12C34.9219 11.8906 34.8008 11.8047 34.6523 11.7422C34.5039 11.6719 34.3359 11.6211 34.1484 11.5898C33.9609 11.5508 33.7773 11.5234 33.5977 11.5078C33.418 11.4922 33.25 11.4844 33.0938 11.4844C32.9375 11.4844 32.8125 11.4844 32.7188 11.4844C32.0469 11.4844 31.4336 11.3789 30.8789 11.168C30.332 10.957 29.8594 10.6602 29.4609 10.2773C29.0703 9.88672 28.7656 9.41797 28.5469 8.87109C28.3281 8.31641 28.2188 7.70312 28.2188 7.03125C28.2188 6.10938 28.4023 5.28516 28.7695 4.55859C29.1445 3.82422 29.6406 3.20312 30.2578 2.69531C30.8828 2.17969 31.5977 1.78516 32.4023 1.51172C33.207 1.23828 34.0391 1.10156 34.8984 1.10156C35.2812 1.10156 35.6758 1.11719 36.082 1.14844C36.4883 1.17188 36.8906 1.21875 37.2891 1.28906C37.6953 1.35938 38.0898 1.44922 38.4727 1.55859C38.8555 1.66797 39.2188 1.80469 39.5625 1.96875L39.1172 6.72656C38.5859 6.54688 38.0273 6.39844 37.4414 6.28125C36.8633 6.15625 36.2969 6.09375 35.7422 6.09375C35.6406 6.09375 35.5078 6.09766 35.3438 6.10547C35.1875 6.10547 35.0195 6.11719 34.8398 6.14062C34.668 6.15625 34.4922 6.18359 34.3125 6.22266C34.1328 6.26172 33.9727 6.31641 33.832 6.38672C33.6914 6.44922 33.5781 6.53516 33.4922 6.64453C33.4062 6.75391 33.3672 6.88281 33.375 7.03125C33.3828 7.20312 33.4453 7.33594 33.5625 7.42969C33.6875 7.52344 33.8438 7.59375 34.0312 7.64062C34.2266 7.67969 34.4375 7.69922 34.6641 7.69922C34.8984 7.69922 35.1289 7.69531 35.3555 7.6875C35.582 7.67188 35.793 7.66016 35.9883 7.65234C36.1836 7.63672 36.3438 7.63281 36.4688 7.64062C37.0938 7.67969 37.6562 7.8125 38.1562 8.03906C38.6562 8.26562 39.0781 8.56641 39.4219 8.94141C39.7734 9.31641 40.0391 9.76562 40.2188 10.2891C40.4062 10.8047 40.5 11.375 40.5 12ZM53.3906 1.47656L53.2734 6.44531L49.7812 6.58594L49.3594 17.4609L44.4141 17.7188L43.9688 6.84375L40.4766 7.03125L40.6172 1.5L53.3906 1.47656ZM134.461 7.19531C134.461 7.95312 134.348 8.625 134.121 9.21094C133.895 9.79688 133.582 10.3125 133.184 10.7578C132.793 11.1953 132.332 11.5664 131.801 11.8711C131.27 12.168 130.699 12.4141 130.09 12.6094C129.488 12.7969 128.863 12.9375 128.215 13.0312C127.566 13.1172 126.93 13.1641 126.305 13.1719V18.1641H120.844C120.844 17.2734 120.844 16.4062 120.844 15.5625C120.852 14.7188 120.855 13.8828 120.855 13.0547C120.863 12.2188 120.867 11.3789 120.867 10.5352C120.875 9.69141 120.883 8.82031 120.891 7.92188C120.906 6.96875 120.91 6.01562 120.902 5.0625C120.895 4.10938 120.914 3.14844 120.961 2.17969C121.961 1.88281 122.961 1.66016 123.961 1.51172C124.961 1.36328 125.992 1.28906 127.055 1.28906C127.656 1.28906 128.258 1.33984 128.859 1.44141C129.461 1.53516 130.035 1.6875 130.582 1.89844C131.137 2.10938 131.648 2.375 132.117 2.69531C132.594 3.00781 133.004 3.38281 133.348 3.82031C133.691 4.25781 133.961 4.75781 134.156 5.32031C134.359 5.88281 134.461 6.50781 134.461 7.19531ZM129.258 7.59375C129.258 7.08594 129.102 6.69141 128.789 6.41016C128.484 6.12109 128.086 5.97656 127.594 5.97656C127.43 5.97656 127.258 5.99219 127.078 6.02344C126.906 6.04688 126.742 6.07812 126.586 6.11719L126.445 9.53906C126.555 9.55469 126.66 9.5625 126.762 9.5625C126.863 9.5625 126.969 9.5625 127.078 9.5625C127.359 9.5625 127.629 9.51562 127.887 9.42188C128.152 9.32812 128.387 9.19531 128.59 9.02344C128.793 8.84375 128.953 8.63672 129.07 8.40234C129.195 8.16016 129.258 7.89062 129.258 7.59375ZM145.406 11.7891L144.914 16.9922L135.047 17.7656L135.422 1.03125H141.516L140.648 11.7891H145.406ZM160.734 16.9922L154.922 17.7422L154.219 15.0938H151.547L150.961 17.7422L144.984 17.1562L149.648 1.54688L156.164 1.21875L160.734 16.9922ZM153.797 11.5078L152.906 7.42969L152.039 11.5078H153.797ZM175.523 12.0703C175.523 12.9531 175.512 13.8281 175.488 14.6953C175.473 15.5547 175.445 16.4219 175.406 17.2969L168.656 17.1797C168.891 15.7969 169.094 14.418 169.266 13.043C169.438 11.6602 169.523 10.2656 169.523 8.85938C169.523 8.75781 169.52 8.59375 169.512 8.36719C169.504 8.14062 169.488 7.88672 169.465 7.60547C169.441 7.31641 169.406 7.02344 169.359 6.72656C169.32 6.42188 169.262 6.14453 169.184 5.89453C169.113 5.64453 169.023 5.44141 168.914 5.28516C168.812 5.12109 168.688 5.03906 168.539 5.03906C168.273 5.03906 168.047 5.11719 167.859 5.27344C167.68 5.42969 167.527 5.63281 167.402 5.88281C167.285 6.125 167.191 6.39844 167.121 6.70312C167.051 7.00781 166.996 7.3125 166.957 7.61719C166.926 7.92188 166.902 8.21094 166.887 8.48438C166.879 8.75 166.875 8.96875 166.875 9.14062C166.836 10.5234 166.805 11.8984 166.781 13.2656C166.758 14.625 166.727 16 166.688 17.3906L160.711 17.6484C160.867 14.8906 161.016 12.1484 161.156 9.42188C161.305 6.69531 161.422 3.95312 161.508 1.19531L167.039 0.914062L166.992 2.78906C167.211 2.52344 167.445 2.27344 167.695 2.03906C167.953 1.80469 168.227 1.60547 168.516 1.44141C168.805 1.26953 169.109 1.13672 169.43 1.04297C169.758 0.941406 170.102 0.890625 170.461 0.890625C171.125 0.890625 171.707 1 172.207 1.21875C172.707 1.4375 173.137 1.73438 173.496 2.10938C173.855 2.48438 174.156 2.92969 174.398 3.44531C174.641 3.95312 174.836 4.49609 174.984 5.07422C175.133 5.65234 175.246 6.25781 175.324 6.89062C175.402 7.51562 175.453 8.13281 175.477 8.74219C175.508 9.35156 175.523 9.94141 175.523 10.5117C175.523 11.082 175.523 11.6016 175.523 12.0703Z" fill="#333333"/>
      <path d="M71.1562 1.47656L71.0391 6.44531L67.5469 6.58594L67.125 17.4609L62.1797 17.7188L61.7344 6.84375L58.2422 7.03125L58.3828 1.5L71.1562 1.47656ZM86.0742 9.02344C86.0742 9.73438 85.9922 10.4219 85.8281 11.0859C85.6641 11.7422 85.4258 12.3594 85.1133 12.9375C84.8086 13.5156 84.4336 14.0469 83.9883 14.5312C83.5508 15.0078 83.0547 15.418 82.5 15.7617C81.9531 16.1055 81.3555 16.375 80.707 16.5703C80.0586 16.7578 79.3711 16.8516 78.6445 16.8516C77.9414 16.8516 77.2695 16.7617 76.6289 16.582C75.9961 16.4023 75.4023 16.1523 74.8477 15.832C74.293 15.5039 73.7891 15.1133 73.3359 14.6602C72.8906 14.1992 72.5078 13.6914 72.1875 13.1367C71.875 12.5742 71.6289 11.9727 71.4492 11.332C71.2773 10.6914 71.1914 10.0234 71.1914 9.32812C71.1914 8.64844 71.2734 7.98438 71.4375 7.33594C71.6016 6.67969 71.8359 6.0625 72.1406 5.48438C72.4531 4.90625 72.8281 4.375 73.2656 3.89062C73.7031 3.40625 74.1914 2.98828 74.7305 2.63672C75.2773 2.28516 75.8672 2.01172 76.5 1.81641C77.1328 1.62109 77.8008 1.52344 78.5039 1.52344C79.6367 1.52344 80.668 1.69922 81.5977 2.05078C82.5352 2.40234 83.332 2.90625 83.9883 3.5625C84.6523 4.21094 85.1641 5 85.5234 5.92969C85.8906 6.85156 86.0742 7.88281 86.0742 9.02344ZM80.8711 9.32812C80.8711 8.99219 80.8203 8.66797 80.7188 8.35547C80.625 8.03516 80.4844 7.75391 80.2969 7.51172C80.1094 7.26172 79.875 7.0625 79.5938 6.91406C79.3203 6.75781 79.0039 6.67969 78.6445 6.67969C78.2773 6.67969 77.9492 6.74609 77.6602 6.87891C77.3711 7.01172 77.1211 7.19531 76.9102 7.42969C76.707 7.65625 76.5508 7.92578 76.4414 8.23828C76.332 8.54297 76.2773 8.86719 76.2773 9.21094C76.2773 9.53906 76.3242 9.86719 76.418 10.1953C76.5117 10.5234 76.6523 10.8203 76.8398 11.0859C77.0273 11.3516 77.2578 11.5664 77.5312 11.7305C77.8125 11.8945 78.1367 11.9766 78.5039 11.9766C78.8711 11.9766 79.1992 11.9062 79.4883 11.7656C79.7852 11.6172 80.0352 11.4219 80.2383 11.1797C80.4414 10.9297 80.5977 10.6445 80.707 10.3242C80.8164 10.0039 80.8711 9.67188 80.8711 9.32812ZM100.863 1.5C100.512 4.25 100.211 6.98828 99.9609 9.71484C99.7109 12.4336 99.4727 15.1719 99.2461 17.9297L94.4414 18.2812L94.6523 16.4766C94.4961 16.6562 94.3125 16.8125 94.1016 16.9453C93.8984 17.0781 93.6797 17.1875 93.4453 17.2734C93.2109 17.3516 92.9688 17.4102 92.7188 17.4492C92.4688 17.4805 92.2305 17.4922 92.0039 17.4844C91.4727 17.4766 90.9727 17.375 90.5039 17.1797C90.0352 16.9766 89.6055 16.7109 89.2148 16.3828C88.8242 16.0469 88.4727 15.6602 88.1602 15.2227C87.8477 14.7773 87.582 14.3125 87.3633 13.8281C87.1523 13.3359 86.9883 12.8359 86.8711 12.3281C86.7617 11.8203 86.707 11.3281 86.707 10.8516C86.707 10.1484 86.7188 9.42188 86.7422 8.67188C86.7734 7.91406 86.8242 7.15625 86.8945 6.39844C86.9648 5.64062 87.0547 4.89062 87.1641 4.14844C87.2812 3.40625 87.4258 2.69531 87.5977 2.01562C88.5508 2.0625 89.5078 2.10547 90.4688 2.14453C91.4297 2.18359 92.3867 2.19531 93.3398 2.17969C93.1602 2.85938 92.9805 3.54297 92.8008 4.23047C92.6289 4.91016 92.4727 5.59766 92.332 6.29297C92.1914 6.98047 92.0781 7.67188 91.9922 8.36719C91.9062 9.0625 91.8633 9.76562 91.8633 10.4766C91.8633 10.6406 91.8711 10.875 91.8867 11.1797C91.9023 11.4844 91.9414 11.7852 92.0039 12.082C92.0742 12.3789 92.1758 12.6406 92.3086 12.8672C92.4492 13.0859 92.6445 13.1953 92.8945 13.1953C93.1914 13.1953 93.457 13.0703 93.6914 12.8203C93.9258 12.5625 94.1328 12.2188 94.3125 11.7891C94.4922 11.3594 94.6445 10.8633 94.7695 10.3008C94.9023 9.73828 95.0117 9.15234 95.0977 8.54297C95.1914 7.92578 95.2656 7.30469 95.3203 6.67969C95.375 6.05469 95.4141 5.46875 95.4375 4.92188C95.4688 4.36719 95.4883 3.87109 95.4961 3.43359C95.5117 2.99609 95.5195 2.65625 95.5195 2.41406C95.5195 2.25781 95.5156 2.10547 95.5078 1.95703C95.5 1.80859 95.4883 1.65625 95.4727 1.5C95.9805 1.51562 96.4844 1.52734 96.9844 1.53516C97.4844 1.54297 97.9883 1.54688 98.4961 1.54688C98.8867 1.54688 99.2773 1.54688 99.668 1.54688C100.066 1.53906 100.465 1.52344 100.863 1.5ZM115.301 6.70312C115.301 7.3125 115.246 7.86719 115.137 8.36719C115.035 8.85938 114.871 9.3125 114.645 9.72656C114.418 10.1406 114.125 10.5234 113.766 10.875C113.406 11.2266 112.973 11.5625 112.465 11.8828L115.254 16.8516L109.98 17.8828L108.176 12.8906L106.723 12.9375L106.512 17.8125H101.473C101.512 16.0312 101.547 14.2578 101.578 12.4922C101.617 10.7266 101.66 8.95312 101.707 7.17188C101.723 6.27344 101.738 5.38281 101.754 4.5C101.77 3.61719 101.801 2.72656 101.848 1.82812C102.395 1.625 102.934 1.45703 103.465 1.32422C103.996 1.19141 104.527 1.08984 105.059 1.01953C105.598 0.941406 106.141 0.890625 106.688 0.867188C107.242 0.835937 107.809 0.820312 108.387 0.820312C109.277 0.820312 110.137 0.945313 110.965 1.19531C111.801 1.4375 112.539 1.80469 113.18 2.29688C113.82 2.78906 114.332 3.40234 114.715 4.13672C115.105 4.87109 115.301 5.72656 115.301 6.70312ZM110.051 7.07812C110.051 6.75 110.004 6.44922 109.91 6.17578C109.824 5.90234 109.691 5.66797 109.512 5.47266C109.34 5.26953 109.121 5.11328 108.855 5.00391C108.598 4.88672 108.293 4.82812 107.941 4.82812C107.785 4.82812 107.633 4.83984 107.484 4.86328C107.336 4.87891 107.191 4.90625 107.051 4.94531L106.863 9.30469H107.145C107.48 9.30469 107.82 9.26172 108.164 9.17578C108.516 9.08984 108.828 8.95703 109.102 8.77734C109.383 8.59766 109.609 8.36719 109.781 8.08594C109.961 7.80469 110.051 7.46875 110.051 7.07812Z" fill="#EC1F46"/>
    </g>
  </symbol>

  <symbol id="search" viewBox="0 0 16 16">
    <g>
      <path fill-rule="evenodd" clip-rule="evenodd" d="M7.33325 2.66668C4.75592 2.66668 2.66659 4.75601 2.66659 7.33334C2.66659 9.91067 4.75592 12 7.33325 12C9.91058 12 11.9999 9.91067 11.9999 7.33334C11.9999 4.75601 9.91058 2.66668 7.33325 2.66668ZM1.33325 7.33334C1.33325 4.01963 4.01954 1.33334 7.33325 1.33334C10.647 1.33334 13.3333 4.01963 13.3333 7.33334C13.3333 10.6471 10.647 13.3333 7.33325 13.3333C4.01954 13.3333 1.33325 10.6471 1.33325 7.33334Z" fill="white"/>
      <path fill-rule="evenodd" clip-rule="evenodd" d="M10.6286 10.6286C10.889 10.3682 11.3111 10.3682 11.5714 10.6286L14.4714 13.5286C14.7318 13.7889 14.7318 14.211 14.4714 14.4714C14.2111 14.7317 13.789 14.7317 13.5286 14.4714L10.6286 11.5714C10.3683 11.311 10.3683 10.8889 10.6286 10.6286Z" fill="white"/>
    </g>
  </symbol>

  <symbol id="star" viewBox="0 0 8 8">
    <g>
      <path fill-rule="evenodd" clip-rule="evenodd" d="M4.00005 0.333328C4.12692 0.333328 4.2428 0.405352 4.29895 0.51912L5.25147 2.44882L7.38159 2.76017C7.50711 2.77851 7.61134 2.86652 7.65047 2.98718C7.68959 3.10785 7.65683 3.24027 7.56596 3.32878L6.02489 4.82978L6.38859 6.95031C6.41004 7.07538 6.35862 7.20177 6.25596 7.27635C6.1533 7.35092 6.0172 7.36075 5.9049 7.30169L4.00005 6.29994L2.0952 7.30169C1.9829 7.36075 1.8468 7.35092 1.74414 7.27635C1.64148 7.20177 1.59006 7.07538 1.61151 6.95031L1.97521 4.82978L0.434139 3.32878C0.343267 3.24027 0.310509 3.10785 0.349635 2.98718C0.388761 2.86652 0.492988 2.77851 0.618508 2.76017L2.74863 2.44882L3.70115 0.51912C3.7573 0.405352 3.87318 0.333328 4.00005 0.333328ZM4.00005 1.41975L3.26895 2.90087C3.22044 2.99915 3.12671 3.06731 3.01826 3.08316L1.38285 3.3222L2.56596 4.47454C2.64459 4.55112 2.68047 4.6615 2.66192 4.76968L2.38278 6.39722L3.8449 5.6283C3.94203 5.57723 4.05807 5.57723 4.1552 5.6283L5.61732 6.39722L5.33818 4.76968C5.31963 4.6615 5.35552 4.55112 5.43414 4.47454L6.61725 3.3222L4.98184 3.08316C4.87339 3.06731 4.77966 2.99915 4.73115 2.90087L4.00005 1.41975Z" fill="#F2994A"/>
      <path d="M2.33333 5L1 3L3 2.66667L4 1L5 2.66667L7 3.33333L5.66667 4.66667L6 7L4 6L2 7L2.33333 5Z" fill="#F2994A"/>
    </g>
  </symbol>

  <symbol id="arrow-left" viewBox="0 0 10 18">
    <g>
      <path fill-rule="evenodd" clip-rule="evenodd" d="M9.63388 0.616117C10.122 1.10427 10.122 1.89573 9.63388 2.38388L3.01777 9L9.63388 15.6161C10.122 16.1043 10.122 16.8957 9.63388 17.3839C9.14573 17.872 8.35427 17.872 7.86612 17.3839L0.366117 9.88388C-0.122039 9.39573 -0.122039 8.60427 0.366117 8.11612L7.86612 0.616117C8.35427 0.127961 9.14573 0.127961 9.63388 0.616117Z"/>
    </g>
  </symbol>  

  <symbol id="arrow-right" viewBox="0 0 10 18">
    <g>
      <path fill-rule="evenodd" clip-rule="evenodd" d="M0.366117 0.616117C0.854272 0.127961 1.64573 0.127961 2.13388 0.616117L9.63388 8.11612C10.122 8.60427 10.122 9.39573 9.63388 9.88388L2.13388 17.3839C1.64573 17.872 0.854272 17.872 0.366117 17.3839C-0.122039 16.8957 -0.122039 16.1043 0.366117 15.6161L6.98223 9L0.366117 2.38388C-0.122039 1.89573 -0.122039 1.10427 0.366117 0.616117Z"/>
    </g>
  </symbol> 

  <symbol id="booking-user" viewBox="0 0 14 14">
    <g>
      <path fill-rule="evenodd" clip-rule="evenodd" d="M2.60427 9.02094C3.15125 8.47396 3.89312 8.16666 4.66667 8.16666H9.33333C10.1069 8.16666 10.8487 8.47396 11.3957 9.02094C11.9427 9.56792 12.25 10.3098 12.25 11.0833V12.25C12.25 12.5722 11.9888 12.8333 11.6667 12.8333C11.3445 12.8333 11.0833 12.5722 11.0833 12.25V11.0833C11.0833 10.6192 10.899 10.1741 10.5708 9.84589C10.2426 9.51771 9.79746 9.33333 9.33333 9.33333H4.66667C4.20254 9.33333 3.75742 9.51771 3.42923 9.84589C3.10104 10.1741 2.91667 10.6192 2.91667 11.0833V12.25C2.91667 12.5722 2.6555 12.8333 2.33333 12.8333C2.01117 12.8333 1.75 12.5722 1.75 12.25V11.0833C1.75 10.3098 2.05729 9.56792 2.60427 9.02094Z" fill="white"/>
      <path fill-rule="evenodd" clip-rule="evenodd" d="M6.99992 2.33333C6.03342 2.33333 5.24992 3.11683 5.24992 4.08333C5.24992 5.04983 6.03342 5.83333 6.99992 5.83333C7.96642 5.83333 8.74992 5.04983 8.74992 4.08333C8.74992 3.11683 7.96642 2.33333 6.99992 2.33333ZM4.08325 4.08333C4.08325 2.4725 5.38909 1.16666 6.99992 1.16666C8.61075 1.16666 9.91658 2.4725 9.91658 4.08333C9.91658 5.69416 8.61075 7 6.99992 7C5.38909 7 4.08325 5.69416 4.08325 4.08333Z" fill="white"/>
    </g>
  </symbol> 

  <symbol id="booking-home" viewBox="0 0 14 14">
    <g>
      <path fill-rule="evenodd" clip-rule="evenodd" d="M6.64195 0.70621C6.8526 0.542373 7.14757 0.542373 7.35821 0.70621L12.6082 4.78954C12.7503 4.90006 12.8334 5.06999 12.8334 5.25V11.6667C12.8334 12.1308 12.649 12.5759 12.3209 12.9041C11.9927 13.2323 11.5475 13.4167 11.0834 13.4167H2.91675C2.45262 13.4167 2.0075 13.2323 1.67931 12.9041C1.35112 12.5759 1.16675 12.1308 1.16675 11.6667V5.25C1.16675 5.06999 1.24986 4.90006 1.39195 4.78954L6.64195 0.70621ZM2.33341 5.5353V11.6667C2.33341 11.8214 2.39487 11.9697 2.50427 12.0791C2.61367 12.1885 2.76204 12.25 2.91675 12.25H11.0834C11.2381 12.25 11.3865 12.1885 11.4959 12.0791C11.6053 11.9697 11.6667 11.8214 11.6667 11.6667V5.5353L7.00008 1.90567L2.33341 5.5353Z" fill="white"/>
      <path fill-rule="evenodd" clip-rule="evenodd" d="M4.66675 7C4.66675 6.67783 4.92792 6.41667 5.25008 6.41667H8.75008C9.07225 6.41667 9.33342 6.67783 9.33342 7V12.8333C9.33342 13.1555 9.07225 13.4167 8.75008 13.4167C8.42792 13.4167 8.16675 13.1555 8.16675 12.8333V7.58333H5.83342V12.8333C5.83342 13.1555 5.57225 13.4167 5.25008 13.4167C4.92792 13.4167 4.66675 13.1555 4.66675 12.8333V7Z" fill="white"/>
    </g>
  </symbol> 

  <symbol id="booking-phone" viewBox="0 0 14 14">
    <g>  
      <path d="M11.6666 13.3583C11.6083 13.3583 11.5499 13.3583 11.4916 13.3583C9.62494 13.125 7.75827 12.4833 6.18327 11.4917C4.72494 10.5583 3.4416 9.275 2.50827 7.81667C1.45827 6.24167 0.816602 4.375 0.641602 2.50833C0.641602 2.04167 0.758268 1.575 1.04993 1.225C1.3416 0.875 1.74993 0.641667 2.2166 0.583333C2.27493 0.583333 2.33327 0.583333 2.3916 0.583333H4.1416C5.0166 0.583333 5.77494 1.225 5.8916 2.1C5.94994 2.625 6.0666 3.15 6.2416 3.61667C6.47494 4.25833 6.29993 4.95833 5.83327 5.48333L5.42494 5.89167C6.12494 6.94167 6.99993 7.875 8.10827 8.575L8.5166 8.16667C8.98327 7.7 9.7416 7.525 10.3833 7.75833C10.8499 7.93333 11.3749 8.05 11.8999 8.10833C12.7749 8.225 13.4166 8.98333 13.4166 9.85833V11.6083C13.4166 12.075 13.2416 12.5417 12.8916 12.8333C12.5416 13.125 12.1333 13.3583 11.6666 13.3583ZM4.1416 1.75H2.3916C2.2166 1.75 2.0416 1.86667 1.92493 1.98333C1.8666 2.1 1.80827 2.21667 1.80827 2.39167C1.98327 4.08333 2.5666 5.71667 3.49994 7.175C4.37494 8.51667 5.48327 9.68333 6.82493 10.5C8.28327 11.4333 9.9166 12.0167 11.6083 12.1917C11.8416 12.1917 11.9583 12.1333 12.0749 12.0167C12.1916 11.9 12.2499 11.7833 12.2499 11.6083V9.85833C12.2499 9.56667 12.0166 9.33333 11.7249 9.275C11.1416 9.21667 10.5583 9.04167 9.97494 8.80833C9.7416 8.75 9.50827 8.75 9.33327 8.925L8.57493 9.68333C8.39994 9.85833 8.10827 9.91667 7.87494 9.8C6.29993 8.925 5.0166 7.64167 4.1416 6.06667C4.08327 5.83333 4.1416 5.54167 4.3166 5.36667L5.07493 4.60833C5.1916 4.49167 5.24994 4.2 5.1916 4.025C4.95827 3.44167 4.8416 2.85833 4.72494 2.275C4.72494 1.98333 4.43327 1.75 4.1416 1.75ZM11.0833 5.83333C10.7916 5.83333 10.5583 5.65833 10.4999 5.36667C10.3249 4.43333 9.5666 3.73333 8.63327 3.5C8.3416 3.44167 8.10827 3.15 8.1666 2.8C8.22494 2.50833 8.5166 2.275 8.8666 2.33333C10.2666 2.625 11.3749 3.675 11.6083 5.075C11.6666 5.36667 11.4916 5.71667 11.1416 5.775C11.1416 5.775 11.1416 5.83333 11.0833 5.83333ZM13.4166 5.775C13.1249 5.775 12.8916 5.54167 12.8333 5.25C12.5999 3.09167 10.9083 1.4 8.6916 1.10833C8.39993 1.05 8.1666 0.758333 8.1666 0.466667C8.1666 0.175 8.5166 -0.0583333 8.80827 -0.0583333C11.5499 0.233333 13.6499 2.33333 13.9416 5.075C13.9999 5.36667 13.7666 5.65833 13.4166 5.71667C13.4749 5.775 13.4166 5.775 13.4166 5.775Z" fill="white"/>
    </g>
  </symbol> 

  <symbol id="location" viewBox="0 0 14 14">
    <g>  
      <path fill-rule="evenodd" clip-rule="evenodd" d="M7.00008 1.16667C5.7624 1.16667 4.57542 1.65833 3.70025 2.5335C2.82508 3.40867 2.33341 4.59566 2.33341 5.83333C2.33341 7.64053 3.50926 9.39415 4.79855 10.7551C5.43127 11.4229 6.06597 11.9697 6.54314 12.3497C6.72073 12.4911 6.87584 12.6089 7.00008 12.7007C7.12432 12.6089 7.27943 12.4911 7.45702 12.3497C7.93419 11.9697 8.56889 11.4229 9.20161 10.7551C10.4909 9.39415 11.6667 7.64053 11.6667 5.83333C11.6667 4.59566 11.1751 3.40867 10.2999 2.5335C9.42474 1.65833 8.23776 1.16667 7.00008 1.16667ZM7.00008 13.4167C6.67651 13.902 6.67636 13.9019 6.67619 13.9018L6.67452 13.9007L6.67064 13.8981L6.65727 13.8891C6.64591 13.8813 6.62971 13.8703 6.60899 13.8559C6.56756 13.8272 6.50802 13.7854 6.43296 13.7312C6.2829 13.6228 6.07046 13.4646 5.8164 13.2623C5.30919 12.8584 4.63139 12.275 3.95161 11.5574C2.6159 10.1475 1.16675 8.10947 1.16675 5.83333C1.16675 4.28624 1.78133 2.80251 2.87529 1.70854C3.96925 0.614581 5.45299 0 7.00008 0C8.54718 0 10.0309 0.614581 11.1249 1.70854C12.2188 2.80251 12.8334 4.28624 12.8334 5.83333C12.8334 8.10947 11.3843 10.1475 10.0486 11.5574C9.36877 12.275 8.69097 12.8584 8.18377 13.2623C7.9297 13.4646 7.71726 13.6228 7.5672 13.7312C7.49214 13.7854 7.43261 13.8272 7.39117 13.8559C7.37045 13.8703 7.35425 13.8813 7.3429 13.8891L7.32953 13.8981L7.32564 13.9007L7.32441 13.9015C7.32424 13.9016 7.32366 13.902 7.00008 13.4167ZM7.00008 13.4167L7.32366 13.902C7.12772 14.0327 6.87213 14.0324 6.67619 13.9018L7.00008 13.4167Z" fill="white"/>
      <path fill-rule="evenodd" clip-rule="evenodd" d="M7.00008 4.66667C6.35575 4.66667 5.83341 5.189 5.83341 5.83333C5.83341 6.47767 6.35575 7 7.00008 7C7.64441 7 8.16675 6.47767 8.16675 5.83333C8.16675 5.189 7.64441 4.66667 7.00008 4.66667ZM4.66675 5.83333C4.66675 4.54467 5.71142 3.5 7.00008 3.5C8.28875 3.5 9.33342 4.54467 9.33342 5.83333C9.33342 7.122 8.28875 8.16667 7.00008 8.16667C5.71142 8.16667 4.66675 7.122 4.66675 5.83333Z" fill="white"/>
    </g>
  </symbol> 

  <symbol id="quote-left" viewBox="0 0 70 49">
    <g>  
      <path opacity="0.4" d="M65 0.795418L50 0.795419L40 19.8312L40 48.3848L70 48.3848L70 19.8312L55 19.8312L65 0.795418ZM25 0.795422L10 0.795423L5.00671e-06 19.8312L7.62939e-06 48.3848L30 48.3848L30 19.8312L15 19.8312L25 0.795422Z" fill="#F2F2F2"/>
    </g>
  </symbol> 

  <symbol id="quote-right" viewBox="0 0 70 49">
    <g>  
      <path opacity="0.4" d="M5 48.2886H20L30 29.2528V0.699219H0V29.2528H15L5 48.2886ZM45 48.2886H60L70 29.2528V0.699219H40V29.2528H55L45 48.2886Z" fill="#F2F2F2"/>
    </g>
  </symbol> 

  <symbol id="fb" viewBox="0 0 20 20">
    <g>
      <path d="M10.001 0.00195312C4.47895 0.00195312 0.00195312 4.47895 0.00195312 10.001C0.00195312 14.991 3.65795 19.127 8.43895 19.88V12.892H5.89895V10.001H8.43895V7.79795C8.43895 5.28995 9.93195 3.90695 12.215 3.90695C13.309 3.90695 14.455 4.10195 14.455 4.10195V6.56095H13.191C11.951 6.56095 11.563 7.33295 11.563 8.12395V9.99895H14.334L13.891 12.89H11.563V19.878C16.344 19.129 20 14.992 20 10.001C20 4.47895 15.523 0.00195312 10.001 0.00195312Z" fill="#BDBDBD"/>
    </g>
  </symbol>

  <symbol id="youtube" viewBox="0 0 21 21">
    <g>
      <path d="M12.1831 10.3247L9.82477 9.22429C9.61897 9.12874 9.44992 9.23584 9.44992 9.46369V11.5364C9.44992 11.7642 9.61897 11.8713 9.82477 11.7758L12.182 10.6754C12.3889 10.5788 12.3889 10.4213 12.1831 10.3247ZM10.4999 0.420044C4.93282 0.420044 0.419922 4.93294 0.419922 10.5C0.419922 16.0671 4.93282 20.58 10.4999 20.58C16.067 20.58 20.5799 16.0671 20.5799 10.5C20.5799 4.93294 16.067 0.420044 10.4999 0.420044ZM10.4999 14.595C5.34022 14.595 5.24992 14.1299 5.24992 10.5C5.24992 6.87019 5.34022 6.40504 10.4999 6.40504C15.6596 6.40504 15.7499 6.87019 15.7499 10.5C15.7499 14.1299 15.6596 14.595 10.4999 14.595Z" fill="#BDBDBD"/>
    </g>
  </symbol>

  <symbol id="instagram" viewBox="0 0 20 20">
    <g>
      <path d="M10 20C8.64583 20 7.35026 19.7363 6.11328 19.209C4.8763 18.6816 3.81185 17.972 2.91992 17.0801C2.02799 16.1882 1.31836 15.1237 0.791016 13.8867C0.263672 12.6497 0 11.3542 0 10C0 8.64583 0.263672 7.35026 0.791016 6.11328C1.31836 4.8763 2.02799 3.81185 2.91992 2.91992C3.81185 2.02799 4.8763 1.31836 6.11328 0.791016C7.35026 0.263672 8.64583 0 10 0C11.3542 0 12.6497 0.263672 13.8867 0.791016C15.1237 1.31836 16.1882 2.02799 17.0801 2.91992C17.972 3.81185 18.6816 4.8763 19.209 6.11328C19.7363 7.35026 20 8.64583 20 10C20 11.3542 19.7363 12.6497 19.209 13.8867C18.6816 15.1237 17.972 16.1882 17.0801 17.0801C16.1882 17.972 15.1237 18.6816 13.8867 19.209C12.6497 19.7363 11.3542 20 10 20ZM15 6.25C15 5.91146 14.8796 5.61849 14.6387 5.37109C14.3978 5.1237 14.1016 5 13.75 5H6.25C5.91146 5 5.61849 5.1237 5.37109 5.37109C5.1237 5.61849 5 5.91146 5 6.25V7.5H7.22656C7.98177 6.66667 8.90625 6.25 10 6.25C11.0938 6.25 12.0182 6.66667 12.7734 7.5H15V6.25ZM7.5 10C7.5 10.6901 7.74414 11.2793 8.23242 11.7676C8.7207 12.2559 9.3099 12.5 10 12.5C10.6901 12.5 11.2793 12.2559 11.7676 11.7676C12.2559 11.2793 12.5 10.6901 12.5 10C12.5 9.3099 12.2559 8.7207 11.7676 8.23242C11.2793 7.74414 10.6901 7.5 10 7.5C9.3099 7.5 8.7207 7.74414 8.23242 8.23242C7.74414 8.7207 7.5 9.3099 7.5 10ZM15 8.75H13.5156C13.6719 9.17969 13.75 9.59635 13.75 10C13.75 11.0417 13.3854 11.9271 12.6562 12.6562C11.9271 13.3854 11.0417 13.75 10 13.75C8.95833 13.75 8.07292 13.3854 7.34375 12.6562C6.61458 11.9271 6.25 11.0417 6.25 10C6.25 9.59635 6.32812 9.17969 6.48438 8.75H5V13.75C5 14.1016 5.12044 14.3978 5.36133 14.6387C5.60221 14.8796 5.89844 15 6.25 15H13.75C14.1016 15 14.3978 14.8796 14.6387 14.6387C14.8796 14.3978 15 14.1016 15 13.75V8.75Z" fill="#BDBDBD"/>
    </g>
  </symbol>
</svg>