<svg xmlns="http://www.w3.org/2000/svg">
  <symbol id="logo-header" viewBox="0 0 176 19">
    <g>
      <path d="M14.2383 13.8281C14.2383 14.4766 14.1172 15.0352 13.875 15.5039C13.6406 15.9727 13.3242 16.3711 12.9258 16.6992C12.5273 17.0273 12.0664 17.2969 11.543 17.5078C11.0273 17.7109 10.4883 17.8711 9.92578 17.9883C9.36328 18.1055 8.79688 18.1836 8.22656 18.2227C7.66406 18.2617 7.13672 18.2812 6.64453 18.2812C6.16016 18.2812 5.65625 18.2617 5.13281 18.2227C4.61719 18.1914 4.10156 18.1328 3.58594 18.0469C3.07031 17.9609 2.5625 17.8477 2.0625 17.707C1.5625 17.5586 1.08984 17.375 0.644531 17.1562L0.621094 2.0625C1.05859 1.88281 1.52344 1.72266 2.01562 1.58203C2.50781 1.43359 3.00781 1.3125 3.51562 1.21875C4.03125 1.11719 4.54297 1.04297 5.05078 0.996094C5.55859 0.941406 6.05078 0.914062 6.52734 0.914062C7.08203 0.914062 7.64062 0.949219 8.20312 1.01953C8.77344 1.08984 9.32031 1.20703 9.84375 1.37109C10.3672 1.53516 10.8555 1.75 11.3086 2.01562C11.7617 2.27344 12.1562 2.59375 12.4922 2.97656C12.8359 3.35938 13.1016 3.80469 13.2891 4.3125C13.4844 4.82031 13.582 5.40625 13.582 6.07031C13.582 6.50781 13.5195 6.91797 13.3945 7.30078C13.2695 7.68359 13.0898 8.02734 12.8555 8.33203C12.6211 8.63672 12.3359 8.89844 12 9.11719C11.6641 9.32812 11.2852 9.48438 10.8633 9.58594C11.3711 9.71875 11.832 9.91406 12.2461 10.1719C12.668 10.4297 13.0234 10.7422 13.3125 11.1094C13.6094 11.4766 13.8359 11.8906 13.9922 12.3516C14.1562 12.8125 14.2383 13.3047 14.2383 13.8281ZM8.28516 7.14844C8.28516 6.92188 8.23828 6.73047 8.14453 6.57422C8.05078 6.41016 7.93359 6.27734 7.79297 6.17578C7.66016 6.07422 7.51172 6 7.34766 5.95312C7.19141 5.90625 7.05078 5.88281 6.92578 5.88281C6.76953 5.88281 6.61719 5.90625 6.46875 5.95312C6.32031 6 6.17578 6.05469 6.03516 6.11719L5.96484 8.71875C6.14453 8.71875 6.36719 8.70312 6.63281 8.67188C6.89844 8.64062 7.15234 8.57422 7.39453 8.47266C7.64453 8.36328 7.85547 8.20703 8.02734 8.00391C8.19922 7.79297 8.28516 7.50781 8.28516 7.14844ZM6.62109 10.9688C6.39453 10.9688 6.17578 10.9922 5.96484 11.0391L5.91797 13.7109C6.03516 13.7344 6.14844 13.7578 6.25781 13.7812C6.375 13.7969 6.48828 13.8047 6.59766 13.8047C6.76172 13.8047 6.94141 13.7891 7.13672 13.7578C7.33203 13.7188 7.51562 13.6484 7.6875 13.5469C7.85938 13.4375 8 13.293 8.10938 13.1133C8.22656 12.9336 8.28516 12.6953 8.28516 12.3984C8.28516 12.1016 8.22656 11.8594 8.10938 11.6719C8 11.4844 7.86328 11.3398 7.69922 11.2383C7.53516 11.1289 7.35547 11.0586 7.16016 11.0273C6.96484 10.9883 6.78516 10.9688 6.62109 10.9688ZM27.7148 8.53125C27.7148 9.21094 27.668 9.89062 27.5742 10.5703C26.2383 10.6562 24.9102 10.7969 23.5898 10.9922C22.2695 11.1797 20.9492 11.3672 19.6289 11.5547C19.832 12.1172 20.1484 12.5664 20.5781 12.9023C21.0156 13.2383 21.5352 13.4062 22.1367 13.4062C22.4492 13.4062 22.7891 13.3477 23.1562 13.2305C23.5312 13.1133 23.9023 12.9688 24.2695 12.7969C24.6367 12.6172 24.9883 12.4258 25.3242 12.2227C25.6602 12.0195 25.9492 11.8359 26.1914 11.6719L25.6289 16.9922C25.3242 17.2266 24.9922 17.4258 24.6328 17.5898C24.2812 17.7539 23.9141 17.8867 23.5312 17.9883C23.1484 18.0898 22.7617 18.1641 22.3711 18.2109C21.9805 18.2578 21.5977 18.2812 21.2227 18.2812C20.4492 18.2812 19.7422 18.1758 19.1016 17.9648C18.4609 17.7539 17.8789 17.4609 17.3555 17.0859C16.8398 16.7031 16.3867 16.2539 15.9961 15.7383C15.6055 15.2227 15.2812 14.6602 15.0234 14.0508C14.7656 13.4414 14.5703 12.7969 14.4375 12.1172C14.3047 11.4375 14.2383 10.75 14.2383 10.0547C14.2383 9.32812 14.3047 8.60156 14.4375 7.875C14.5703 7.14844 14.7695 6.44922 15.0352 5.77734C15.3086 5.10547 15.6484 4.48438 16.0547 3.91406C16.4688 3.33594 16.9492 2.83203 17.4961 2.40234C18.043 1.97266 18.6602 1.63672 19.3477 1.39453C20.043 1.15234 20.8086 1.03125 21.6445 1.03125C22.3398 1.03125 22.9727 1.12891 23.543 1.32422C24.1211 1.51172 24.6328 1.77734 25.0781 2.12109C25.5312 2.45703 25.9219 2.85938 26.25 3.32812C26.5859 3.79688 26.8594 4.3125 27.0703 4.875C27.2891 5.42969 27.4492 6.01953 27.5508 6.64453C27.6602 7.26172 27.7148 7.89062 27.7148 8.53125ZM23.0273 7.92188C23.0273 7.70312 23.0039 7.48047 22.957 7.25391C22.9102 7.01953 22.832 6.80859 22.7227 6.62109C22.6211 6.43359 22.4844 6.28125 22.3125 6.16406C22.1406 6.03906 21.9258 5.97656 21.668 5.97656C21.3555 5.97656 21.0781 6.0625 20.8359 6.23438C20.6016 6.39844 20.3984 6.60938 20.2266 6.86719C20.0547 7.11719 19.9141 7.39062 19.8047 7.6875C19.6953 7.98438 19.6133 8.25781 19.5586 8.50781L23.0273 8.17969V7.92188ZM40.5 12C40.5 13.0703 40.3125 13.9961 39.9375 14.7773C39.5703 15.5508 39.0625 16.1914 38.4141 16.6992C37.7734 17.1992 37.0195 17.5703 36.1523 17.8125C35.293 18.0469 34.3672 18.1641 33.375 18.1641C32.9922 18.1641 32.5703 18.1133 32.1094 18.0117C31.6562 17.9102 31.1953 17.7852 30.7266 17.6367C30.2578 17.4805 29.8047 17.3164 29.3672 17.1445C28.9375 16.9648 28.5547 16.7969 28.2188 16.6406L28.7344 12.0469C29.3984 12.4453 30.1328 12.75 30.9375 12.9609C31.75 13.1641 32.5469 13.2656 33.3281 13.2656C33.4766 13.2656 33.6562 13.2617 33.8672 13.2539C34.0781 13.2383 34.2773 13.2031 34.4648 13.1484C34.6602 13.0859 34.8242 12.9961 34.957 12.8789C35.0898 12.7617 35.1562 12.5938 35.1562 12.375C35.1562 12.2266 35.1094 12.1016 35.0156 12C34.9219 11.8906 34.8008 11.8047 34.6523 11.7422C34.5039 11.6719 34.3359 11.6211 34.1484 11.5898C33.9609 11.5508 33.7773 11.5234 33.5977 11.5078C33.418 11.4922 33.25 11.4844 33.0938 11.4844C32.9375 11.4844 32.8125 11.4844 32.7188 11.4844C32.0469 11.4844 31.4336 11.3789 30.8789 11.168C30.332 10.957 29.8594 10.6602 29.4609 10.2773C29.0703 9.88672 28.7656 9.41797 28.5469 8.87109C28.3281 8.31641 28.2188 7.70312 28.2188 7.03125C28.2188 6.10938 28.4023 5.28516 28.7695 4.55859C29.1445 3.82422 29.6406 3.20312 30.2578 2.69531C30.8828 2.17969 31.5977 1.78516 32.4023 1.51172C33.207 1.23828 34.0391 1.10156 34.8984 1.10156C35.2812 1.10156 35.6758 1.11719 36.082 1.14844C36.4883 1.17188 36.8906 1.21875 37.2891 1.28906C37.6953 1.35938 38.0898 1.44922 38.4727 1.55859C38.8555 1.66797 39.2188 1.80469 39.5625 1.96875L39.1172 6.72656C38.5859 6.54688 38.0273 6.39844 37.4414 6.28125C36.8633 6.15625 36.2969 6.09375 35.7422 6.09375C35.6406 6.09375 35.5078 6.09766 35.3438 6.10547C35.1875 6.10547 35.0195 6.11719 34.8398 6.14062C34.668 6.15625 34.4922 6.18359 34.3125 6.22266C34.1328 6.26172 33.9727 6.31641 33.832 6.38672C33.6914 6.44922 33.5781 6.53516 33.4922 6.64453C33.4062 6.75391 33.3672 6.88281 33.375 7.03125C33.3828 7.20312 33.4453 7.33594 33.5625 7.42969C33.6875 7.52344 33.8438 7.59375 34.0312 7.64062C34.2266 7.67969 34.4375 7.69922 34.6641 7.69922C34.8984 7.69922 35.1289 7.69531 35.3555 7.6875C35.582 7.67188 35.793 7.66016 35.9883 7.65234C36.1836 7.63672 36.3438 7.63281 36.4688 7.64062C37.0938 7.67969 37.6562 7.8125 38.1562 8.03906C38.6562 8.26562 39.0781 8.56641 39.4219 8.94141C39.7734 9.31641 40.0391 9.76562 40.2188 10.2891C40.4062 10.8047 40.5 11.375 40.5 12ZM53.3906 1.47656L53.2734 6.44531L49.7812 6.58594L49.3594 17.4609L44.4141 17.7188L43.9688 6.84375L40.4766 7.03125L40.6172 1.5L53.3906 1.47656ZM134.461 7.19531C134.461 7.95312 134.348 8.625 134.121 9.21094C133.895 9.79688 133.582 10.3125 133.184 10.7578C132.793 11.1953 132.332 11.5664 131.801 11.8711C131.27 12.168 130.699 12.4141 130.09 12.6094C129.488 12.7969 128.863 12.9375 128.215 13.0312C127.566 13.1172 126.93 13.1641 126.305 13.1719V18.1641H120.844C120.844 17.2734 120.844 16.4062 120.844 15.5625C120.852 14.7188 120.855 13.8828 120.855 13.0547C120.863 12.2188 120.867 11.3789 120.867 10.5352C120.875 9.69141 120.883 8.82031 120.891 7.92188C120.906 6.96875 120.91 6.01562 120.902 5.0625C120.895 4.10938 120.914 3.14844 120.961 2.17969C121.961 1.88281 122.961 1.66016 123.961 1.51172C124.961 1.36328 125.992 1.28906 127.055 1.28906C127.656 1.28906 128.258 1.33984 128.859 1.44141C129.461 1.53516 130.035 1.6875 130.582 1.89844C131.137 2.10938 131.648 2.375 132.117 2.69531C132.594 3.00781 133.004 3.38281 133.348 3.82031C133.691 4.25781 133.961 4.75781 134.156 5.32031C134.359 5.88281 134.461 6.50781 134.461 7.19531ZM129.258 7.59375C129.258 7.08594 129.102 6.69141 128.789 6.41016C128.484 6.12109 128.086 5.97656 127.594 5.97656C127.43 5.97656 127.258 5.99219 127.078 6.02344C126.906 6.04688 126.742 6.07812 126.586 6.11719L126.445 9.53906C126.555 9.55469 126.66 9.5625 126.762 9.5625C126.863 9.5625 126.969 9.5625 127.078 9.5625C127.359 9.5625 127.629 9.51562 127.887 9.42188C128.152 9.32812 128.387 9.19531 128.59 9.02344C128.793 8.84375 128.953 8.63672 129.07 8.40234C129.195 8.16016 129.258 7.89062 129.258 7.59375ZM145.406 11.7891L144.914 16.9922L135.047 17.7656L135.422 1.03125H141.516L140.648 11.7891H145.406ZM160.734 16.9922L154.922 17.7422L154.219 15.0938H151.547L150.961 17.7422L144.984 17.1562L149.648 1.54688L156.164 1.21875L160.734 16.9922ZM153.797 11.5078L152.906 7.42969L152.039 11.5078H153.797ZM175.523 12.0703C175.523 12.9531 175.512 13.8281 175.488 14.6953C175.473 15.5547 175.445 16.4219 175.406 17.2969L168.656 17.1797C168.891 15.7969 169.094 14.418 169.266 13.043C169.438 11.6602 169.523 10.2656 169.523 8.85938C169.523 8.75781 169.52 8.59375 169.512 8.36719C169.504 8.14062 169.488 7.88672 169.465 7.60547C169.441 7.31641 169.406 7.02344 169.359 6.72656C169.32 6.42188 169.262 6.14453 169.184 5.89453C169.113 5.64453 169.023 5.44141 168.914 5.28516C168.812 5.12109 168.688 5.03906 168.539 5.03906C168.273 5.03906 168.047 5.11719 167.859 5.27344C167.68 5.42969 167.527 5.63281 167.402 5.88281C167.285 6.125 167.191 6.39844 167.121 6.70312C167.051 7.00781 166.996 7.3125 166.957 7.61719C166.926 7.92188 166.902 8.21094 166.887 8.48438C166.879 8.75 166.875 8.96875 166.875 9.14062C166.836 10.5234 166.805 11.8984 166.781 13.2656C166.758 14.625 166.727 16 166.688 17.3906L160.711 17.6484C160.867 14.8906 161.016 12.1484 161.156 9.42188C161.305 6.69531 161.422 3.95312 161.508 1.19531L167.039 0.914062L166.992 2.78906C167.211 2.52344 167.445 2.27344 167.695 2.03906C167.953 1.80469 168.227 1.60547 168.516 1.44141C168.805 1.26953 169.109 1.13672 169.43 1.04297C169.758 0.941406 170.102 0.890625 170.461 0.890625C171.125 0.890625 171.707 1 172.207 1.21875C172.707 1.4375 173.137 1.73438 173.496 2.10938C173.855 2.48438 174.156 2.92969 174.398 3.44531C174.641 3.95312 174.836 4.49609 174.984 5.07422C175.133 5.65234 175.246 6.25781 175.324 6.89062C175.402 7.51562 175.453 8.13281 175.477 8.74219C175.508 9.35156 175.523 9.94141 175.523 10.5117C175.523 11.082 175.523 11.6016 175.523 12.0703Z" fill="#333333"/>
      <path d="M71.1562 1.47656L71.0391 6.44531L67.5469 6.58594L67.125 17.4609L62.1797 17.7188L61.7344 6.84375L58.2422 7.03125L58.3828 1.5L71.1562 1.47656ZM86.0742 9.02344C86.0742 9.73438 85.9922 10.4219 85.8281 11.0859C85.6641 11.7422 85.4258 12.3594 85.1133 12.9375C84.8086 13.5156 84.4336 14.0469 83.9883 14.5312C83.5508 15.0078 83.0547 15.418 82.5 15.7617C81.9531 16.1055 81.3555 16.375 80.707 16.5703C80.0586 16.7578 79.3711 16.8516 78.6445 16.8516C77.9414 16.8516 77.2695 16.7617 76.6289 16.582C75.9961 16.4023 75.4023 16.1523 74.8477 15.832C74.293 15.5039 73.7891 15.1133 73.3359 14.6602C72.8906 14.1992 72.5078 13.6914 72.1875 13.1367C71.875 12.5742 71.6289 11.9727 71.4492 11.332C71.2773 10.6914 71.1914 10.0234 71.1914 9.32812C71.1914 8.64844 71.2734 7.98438 71.4375 7.33594C71.6016 6.67969 71.8359 6.0625 72.1406 5.48438C72.4531 4.90625 72.8281 4.375 73.2656 3.89062C73.7031 3.40625 74.1914 2.98828 74.7305 2.63672C75.2773 2.28516 75.8672 2.01172 76.5 1.81641C77.1328 1.62109 77.8008 1.52344 78.5039 1.52344C79.6367 1.52344 80.668 1.69922 81.5977 2.05078C82.5352 2.40234 83.332 2.90625 83.9883 3.5625C84.6523 4.21094 85.1641 5 85.5234 5.92969C85.8906 6.85156 86.0742 7.88281 86.0742 9.02344ZM80.8711 9.32812C80.8711 8.99219 80.8203 8.66797 80.7188 8.35547C80.625 8.03516 80.4844 7.75391 80.2969 7.51172C80.1094 7.26172 79.875 7.0625 79.5938 6.91406C79.3203 6.75781 79.0039 6.67969 78.6445 6.67969C78.2773 6.67969 77.9492 6.74609 77.6602 6.87891C77.3711 7.01172 77.1211 7.19531 76.9102 7.42969C76.707 7.65625 76.5508 7.92578 76.4414 8.23828C76.332 8.54297 76.2773 8.86719 76.2773 9.21094C76.2773 9.53906 76.3242 9.86719 76.418 10.1953C76.5117 10.5234 76.6523 10.8203 76.8398 11.0859C77.0273 11.3516 77.2578 11.5664 77.5312 11.7305C77.8125 11.8945 78.1367 11.9766 78.5039 11.9766C78.8711 11.9766 79.1992 11.9062 79.4883 11.7656C79.7852 11.6172 80.0352 11.4219 80.2383 11.1797C80.4414 10.9297 80.5977 10.6445 80.707 10.3242C80.8164 10.0039 80.8711 9.67188 80.8711 9.32812ZM100.863 1.5C100.512 4.25 100.211 6.98828 99.9609 9.71484C99.7109 12.4336 99.4727 15.1719 99.2461 17.9297L94.4414 18.2812L94.6523 16.4766C94.4961 16.6562 94.3125 16.8125 94.1016 16.9453C93.8984 17.0781 93.6797 17.1875 93.4453 17.2734C93.2109 17.3516 92.9688 17.4102 92.7188 17.4492C92.4688 17.4805 92.2305 17.4922 92.0039 17.4844C91.4727 17.4766 90.9727 17.375 90.5039 17.1797C90.0352 16.9766 89.6055 16.7109 89.2148 16.3828C88.8242 16.0469 88.4727 15.6602 88.1602 15.2227C87.8477 14.7773 87.582 14.3125 87.3633 13.8281C87.1523 13.3359 86.9883 12.8359 86.8711 12.3281C86.7617 11.8203 86.707 11.3281 86.707 10.8516C86.707 10.1484 86.7188 9.42188 86.7422 8.67188C86.7734 7.91406 86.8242 7.15625 86.8945 6.39844C86.9648 5.64062 87.0547 4.89062 87.1641 4.14844C87.2812 3.40625 87.4258 2.69531 87.5977 2.01562C88.5508 2.0625 89.5078 2.10547 90.4688 2.14453C91.4297 2.18359 92.3867 2.19531 93.3398 2.17969C93.1602 2.85938 92.9805 3.54297 92.8008 4.23047C92.6289 4.91016 92.4727 5.59766 92.332 6.29297C92.1914 6.98047 92.0781 7.67188 91.9922 8.36719C91.9062 9.0625 91.8633 9.76562 91.8633 10.4766C91.8633 10.6406 91.8711 10.875 91.8867 11.1797C91.9023 11.4844 91.9414 11.7852 92.0039 12.082C92.0742 12.3789 92.1758 12.6406 92.3086 12.8672C92.4492 13.0859 92.6445 13.1953 92.8945 13.1953C93.1914 13.1953 93.457 13.0703 93.6914 12.8203C93.9258 12.5625 94.1328 12.2188 94.3125 11.7891C94.4922 11.3594 94.6445 10.8633 94.7695 10.3008C94.9023 9.73828 95.0117 9.15234 95.0977 8.54297C95.1914 7.92578 95.2656 7.30469 95.3203 6.67969C95.375 6.05469 95.4141 5.46875 95.4375 4.92188C95.4688 4.36719 95.4883 3.87109 95.4961 3.43359C95.5117 2.99609 95.5195 2.65625 95.5195 2.41406C95.5195 2.25781 95.5156 2.10547 95.5078 1.95703C95.5 1.80859 95.4883 1.65625 95.4727 1.5C95.9805 1.51562 96.4844 1.52734 96.9844 1.53516C97.4844 1.54297 97.9883 1.54688 98.4961 1.54688C98.8867 1.54688 99.2773 1.54688 99.668 1.54688C100.066 1.53906 100.465 1.52344 100.863 1.5ZM115.301 6.70312C115.301 7.3125 115.246 7.86719 115.137 8.36719C115.035 8.85938 114.871 9.3125 114.645 9.72656C114.418 10.1406 114.125 10.5234 113.766 10.875C113.406 11.2266 112.973 11.5625 112.465 11.8828L115.254 16.8516L109.98 17.8828L108.176 12.8906L106.723 12.9375L106.512 17.8125H101.473C101.512 16.0312 101.547 14.2578 101.578 12.4922C101.617 10.7266 101.66 8.95312 101.707 7.17188C101.723 6.27344 101.738 5.38281 101.754 4.5C101.77 3.61719 101.801 2.72656 101.848 1.82812C102.395 1.625 102.934 1.45703 103.465 1.32422C103.996 1.19141 104.527 1.08984 105.059 1.01953C105.598 0.941406 106.141 0.890625 106.688 0.867188C107.242 0.835937 107.809 0.820312 108.387 0.820312C109.277 0.820312 110.137 0.945313 110.965 1.19531C111.801 1.4375 112.539 1.80469 113.18 2.29688C113.82 2.78906 114.332 3.40234 114.715 4.13672C115.105 4.87109 115.301 5.72656 115.301 6.70312ZM110.051 7.07812C110.051 6.75 110.004 6.44922 109.91 6.17578C109.824 5.90234 109.691 5.66797 109.512 5.47266C109.34 5.26953 109.121 5.11328 108.855 5.00391C108.598 4.88672 108.293 4.82812 107.941 4.82812C107.785 4.82812 107.633 4.83984 107.484 4.86328C107.336 4.87891 107.191 4.90625 107.051 4.94531L106.863 9.30469H107.145C107.48 9.30469 107.82 9.26172 108.164 9.17578C108.516 9.08984 108.828 8.95703 109.102 8.77734C109.383 8.59766 109.609 8.36719 109.781 8.08594C109.961 7.80469 110.051 7.46875 110.051 7.07812Z" fill="#EC1F46"/>
    </g>
  </symbol>

  <symbol id="search" viewBox="0 0 16 16">
    <g>
      <path fill-rule="evenodd" clip-rule="evenodd" d="M7.33325 2.66668C4.75592 2.66668 2.66659 4.75601 2.66659 7.33334C2.66659 9.91067 4.75592 12 7.33325 12C9.91058 12 11.9999 9.91067 11.9999 7.33334C11.9999 4.75601 9.91058 2.66668 7.33325 2.66668ZM1.33325 7.33334C1.33325 4.01963 4.01954 1.33334 7.33325 1.33334C10.647 1.33334 13.3333 4.01963 13.3333 7.33334C13.3333 10.6471 10.647 13.3333 7.33325 13.3333C4.01954 13.3333 1.33325 10.6471 1.33325 7.33334Z" fill="white"/>
      <path fill-rule="evenodd" clip-rule="evenodd" d="M10.6286 10.6286C10.889 10.3682 11.3111 10.3682 11.5714 10.6286L14.4714 13.5286C14.7318 13.7889 14.7318 14.211 14.4714 14.4714C14.2111 14.7317 13.789 14.7317 13.5286 14.4714L10.6286 11.5714C10.3683 11.311 10.3683 10.8889 10.6286 10.6286Z" fill="white"/>
    </g>
  </symbol>

  <symbol id="star" viewBox="0 0 8 8">
    <g>
      <path fill-rule="evenodd" clip-rule="evenodd" d="M4.00005 0.333328C4.12692 0.333328 4.2428 0.405352 4.29895 0.51912L5.25147 2.44882L7.38159 2.76017C7.50711 2.77851 7.61134 2.86652 7.65047 2.98718C7.68959 3.10785 7.65683 3.24027 7.56596 3.32878L6.02489 4.82978L6.38859 6.95031C6.41004 7.07538 6.35862 7.20177 6.25596 7.27635C6.1533 7.35092 6.0172 7.36075 5.9049 7.30169L4.00005 6.29994L2.0952 7.30169C1.9829 7.36075 1.8468 7.35092 1.74414 7.27635C1.64148 7.20177 1.59006 7.07538 1.61151 6.95031L1.97521 4.82978L0.434139 3.32878C0.343267 3.24027 0.310509 3.10785 0.349635 2.98718C0.388761 2.86652 0.492988 2.77851 0.618508 2.76017L2.74863 2.44882L3.70115 0.51912C3.7573 0.405352 3.87318 0.333328 4.00005 0.333328ZM4.00005 1.41975L3.26895 2.90087C3.22044 2.99915 3.12671 3.06731 3.01826 3.08316L1.38285 3.3222L2.56596 4.47454C2.64459 4.55112 2.68047 4.6615 2.66192 4.76968L2.38278 6.39722L3.8449 5.6283C3.94203 5.57723 4.05807 5.57723 4.1552 5.6283L5.61732 6.39722L5.33818 4.76968C5.31963 4.6615 5.35552 4.55112 5.43414 4.47454L6.61725 3.3222L4.98184 3.08316C4.87339 3.06731 4.77966 2.99915 4.73115 2.90087L4.00005 1.41975Z" fill="#F2994A"/>
      <path d="M2.33333 5L1 3L3 2.66667L4 1L5 2.66667L7 3.33333L5.66667 4.66667L6 7L4 6L2 7L2.33333 5Z" fill="#F2994A"/>
    </g>
  </symbol>

  <symbol id="arrow-left" viewBox="0 0 10 18">
    <g>
      <path fill-rule="evenodd" clip-rule="evenodd" d="M9.63388 0.616117C10.122 1.10427 10.122 1.89573 9.63388 2.38388L3.01777 9L9.63388 15.6161C10.122 16.1043 10.122 16.8957 9.63388 17.3839C9.14573 17.872 8.35427 17.872 7.86612 17.3839L0.366117 9.88388C-0.122039 9.39573 -0.122039 8.60427 0.366117 8.11612L7.86612 0.616117C8.35427 0.127961 9.14573 0.127961 9.63388 0.616117Z"/>
    </g>
  </symbol>  

  <symbol id="arrow-right" viewBox="0 0 10 18">
    <g>
      <path fill-rule="evenodd" clip-rule="evenodd" d="M0.366117 0.616117C0.854272 0.127961 1.64573 0.127961 2.13388 0.616117L9.63388 8.11612C10.122 8.60427 10.122 9.39573 9.63388 9.88388L2.13388 17.3839C1.64573 17.872 0.854272 17.872 0.366117 17.3839C-0.122039 16.8957 -0.122039 16.1043 0.366117 15.6161L6.98223 9L0.366117 2.38388C-0.122039 1.89573 -0.122039 1.10427 0.366117 0.616117Z"/>
    </g>
  </symbol> 

  <symbol id="booking-user" viewBox="0 0 14 14">
    <g>
      <path fill-rule="evenodd" clip-rule="evenodd" d="M2.60427 9.02094C3.15125 8.47396 3.89312 8.16666 4.66667 8.16666H9.33333C10.1069 8.16666 10.8487 8.47396 11.3957 9.02094C11.9427 9.56792 12.25 10.3098 12.25 11.0833V12.25C12.25 12.5722 11.9888 12.8333 11.6667 12.8333C11.3445 12.8333 11.0833 12.5722 11.0833 12.25V11.0833C11.0833 10.6192 10.899 10.1741 10.5708 9.84589C10.2426 9.51771 9.79746 9.33333 9.33333 9.33333H4.66667C4.20254 9.33333 3.75742 9.51771 3.42923 9.84589C3.10104 10.1741 2.91667 10.6192 2.91667 11.0833V12.25C2.91667 12.5722 2.6555 12.8333 2.33333 12.8333C2.01117 12.8333 1.75 12.5722 1.75 12.25V11.0833C1.75 10.3098 2.05729 9.56792 2.60427 9.02094Z" fill="white"/>
      <path fill-rule="evenodd" clip-rule="evenodd" d="M6.99992 2.33333C6.03342 2.33333 5.24992 3.11683 5.24992 4.08333C5.24992 5.04983 6.03342 5.83333 6.99992 5.83333C7.96642 5.83333 8.74992 5.04983 8.74992 4.08333C8.74992 3.11683 7.96642 2.33333 6.99992 2.33333ZM4.08325 4.08333C4.08325 2.4725 5.38909 1.16666 6.99992 1.16666C8.61075 1.16666 9.91658 2.4725 9.91658 4.08333C9.91658 5.69416 8.61075 7 6.99992 7C5.38909 7 4.08325 5.69416 4.08325 4.08333Z" fill="white"/>
    </g>
  </symbol> 

  <symbol id="booking-home" viewBox="0 0 14 14">
    <g>
      <path fill-rule="evenodd" clip-rule="evenodd" d="M6.64195 0.70621C6.8526 0.542373 7.14757 0.542373 7.35821 0.70621L12.6082 4.78954C12.7503 4.90006 12.8334 5.06999 12.8334 5.25V11.6667C12.8334 12.1308 12.649 12.5759 12.3209 12.9041C11.9927 13.2323 11.5475 13.4167 11.0834 13.4167H2.91675C2.45262 13.4167 2.0075 13.2323 1.67931 12.9041C1.35112 12.5759 1.16675 12.1308 1.16675 11.6667V5.25C1.16675 5.06999 1.24986 4.90006 1.39195 4.78954L6.64195 0.70621ZM2.33341 5.5353V11.6667C2.33341 11.8214 2.39487 11.9697 2.50427 12.0791C2.61367 12.1885 2.76204 12.25 2.91675 12.25H11.0834C11.2381 12.25 11.3865 12.1885 11.4959 12.0791C11.6053 11.9697 11.6667 11.8214 11.6667 11.6667V5.5353L7.00008 1.90567L2.33341 5.5353Z" fill="white"/>
      <path fill-rule="evenodd" clip-rule="evenodd" d="M4.66675 7C4.66675 6.67783 4.92792 6.41667 5.25008 6.41667H8.75008C9.07225 6.41667 9.33342 6.67783 9.33342 7V12.8333C9.33342 13.1555 9.07225 13.4167 8.75008 13.4167C8.42792 13.4167 8.16675 13.1555 8.16675 12.8333V7.58333H5.83342V12.8333C5.83342 13.1555 5.57225 13.4167 5.25008 13.4167C4.92792 13.4167 4.66675 13.1555 4.66675 12.8333V7Z" fill="white"/>
    </g>
  </symbol> 

  <symbol id="booking-phone" viewBox="0 0 14 14">
    <g>  
      <path d="M11.6666 13.3583C11.6083 13.3583 11.5499 13.3583 11.4916 13.3583C9.62494 13.125 7.75827 12.4833 6.18327 11.4917C4.72494 10.5583 3.4416 9.275 2.50827 7.81667C1.45827 6.24167 0.816602 4.375 0.641602 2.50833C0.641602 2.04167 0.758268 1.575 1.04993 1.225C1.3416 0.875 1.74993 0.641667 2.2166 0.583333C2.27493 0.583333 2.33327 0.583333 2.3916 0.583333H4.1416C5.0166 0.583333 5.77494 1.225 5.8916 2.1C5.94994 2.625 6.0666 3.15 6.2416 3.61667C6.47494 4.25833 6.29993 4.95833 5.83327 5.48333L5.42494 5.89167C6.12494 6.94167 6.99993 7.875 8.10827 8.575L8.5166 8.16667C8.98327 7.7 9.7416 7.525 10.3833 7.75833C10.8499 7.93333 11.3749 8.05 11.8999 8.10833C12.7749 8.225 13.4166 8.98333 13.4166 9.85833V11.6083C13.4166 12.075 13.2416 12.5417 12.8916 12.8333C12.5416 13.125 12.1333 13.3583 11.6666 13.3583ZM4.1416 1.75H2.3916C2.2166 1.75 2.0416 1.86667 1.92493 1.98333C1.8666 2.1 1.80827 2.21667 1.80827 2.39167C1.98327 4.08333 2.5666 5.71667 3.49994 7.175C4.37494 8.51667 5.48327 9.68333 6.82493 10.5C8.28327 11.4333 9.9166 12.0167 11.6083 12.1917C11.8416 12.1917 11.9583 12.1333 12.0749 12.0167C12.1916 11.9 12.2499 11.7833 12.2499 11.6083V9.85833C12.2499 9.56667 12.0166 9.33333 11.7249 9.275C11.1416 9.21667 10.5583 9.04167 9.97494 8.80833C9.7416 8.75 9.50827 8.75 9.33327 8.925L8.57493 9.68333C8.39994 9.85833 8.10827 9.91667 7.87494 9.8C6.29993 8.925 5.0166 7.64167 4.1416 6.06667C4.08327 5.83333 4.1416 5.54167 4.3166 5.36667L5.07493 4.60833C5.1916 4.49167 5.24994 4.2 5.1916 4.025C4.95827 3.44167 4.8416 2.85833 4.72494 2.275C4.72494 1.98333 4.43327 1.75 4.1416 1.75ZM11.0833 5.83333C10.7916 5.83333 10.5583 5.65833 10.4999 5.36667C10.3249 4.43333 9.5666 3.73333 8.63327 3.5C8.3416 3.44167 8.10827 3.15 8.1666 2.8C8.22494 2.50833 8.5166 2.275 8.8666 2.33333C10.2666 2.625 11.3749 3.675 11.6083 5.075C11.6666 5.36667 11.4916 5.71667 11.1416 5.775C11.1416 5.775 11.1416 5.83333 11.0833 5.83333ZM13.4166 5.775C13.1249 5.775 12.8916 5.54167 12.8333 5.25C12.5999 3.09167 10.9083 1.4 8.6916 1.10833C8.39993 1.05 8.1666 0.758333 8.1666 0.466667C8.1666 0.175 8.5166 -0.0583333 8.80827 -0.0583333C11.5499 0.233333 13.6499 2.33333 13.9416 5.075C13.9999 5.36667 13.7666 5.65833 13.4166 5.71667C13.4749 5.775 13.4166 5.775 13.4166 5.775Z" fill="white"/>
    </g>
  </symbol> 

  <symbol id="location" viewBox="0 0 14 14">
    <g>  
      <path fill-rule="evenodd" clip-rule="evenodd" d="M7.00008 1.16667C5.7624 1.16667 4.57542 1.65833 3.70025 2.5335C2.82508 3.40867 2.33341 4.59566 2.33341 5.83333C2.33341 7.64053 3.50926 9.39415 4.79855 10.7551C5.43127 11.4229 6.06597 11.9697 6.54314 12.3497C6.72073 12.4911 6.87584 12.6089 7.00008 12.7007C7.12432 12.6089 7.27943 12.4911 7.45702 12.3497C7.93419 11.9697 8.56889 11.4229 9.20161 10.7551C10.4909 9.39415 11.6667 7.64053 11.6667 5.83333C11.6667 4.59566 11.1751 3.40867 10.2999 2.5335C9.42474 1.65833 8.23776 1.16667 7.00008 1.16667ZM7.00008 13.4167C6.67651 13.902 6.67636 13.9019 6.67619 13.9018L6.67452 13.9007L6.67064 13.8981L6.65727 13.8891C6.64591 13.8813 6.62971 13.8703 6.60899 13.8559C6.56756 13.8272 6.50802 13.7854 6.43296 13.7312C6.2829 13.6228 6.07046 13.4646 5.8164 13.2623C5.30919 12.8584 4.63139 12.275 3.95161 11.5574C2.6159 10.1475 1.16675 8.10947 1.16675 5.83333C1.16675 4.28624 1.78133 2.80251 2.87529 1.70854C3.96925 0.614581 5.45299 0 7.00008 0C8.54718 0 10.0309 0.614581 11.1249 1.70854C12.2188 2.80251 12.8334 4.28624 12.8334 5.83333C12.8334 8.10947 11.3843 10.1475 10.0486 11.5574C9.36877 12.275 8.69097 12.8584 8.18377 13.2623C7.9297 13.4646 7.71726 13.6228 7.5672 13.7312C7.49214 13.7854 7.43261 13.8272 7.39117 13.8559C7.37045 13.8703 7.35425 13.8813 7.3429 13.8891L7.32953 13.8981L7.32564 13.9007L7.32441 13.9015C7.32424 13.9016 7.32366 13.902 7.00008 13.4167ZM7.00008 13.4167L7.32366 13.902C7.12772 14.0327 6.87213 14.0324 6.67619 13.9018L7.00008 13.4167Z" fill="white"/>
      <path fill-rule="evenodd" clip-rule="evenodd" d="M7.00008 4.66667C6.35575 4.66667 5.83341 5.189 5.83341 5.83333C5.83341 6.47767 6.35575 7 7.00008 7C7.64441 7 8.16675 6.47767 8.16675 5.83333C8.16675 5.189 7.64441 4.66667 7.00008 4.66667ZM4.66675 5.83333C4.66675 4.54467 5.71142 3.5 7.00008 3.5C8.28875 3.5 9.33342 4.54467 9.33342 5.83333C9.33342 7.122 8.28875 8.16667 7.00008 8.16667C5.71142 8.16667 4.66675 7.122 4.66675 5.83333Z" fill="white"/>
    </g>
  </symbol> 

  <symbol id="quote-left" viewBox="0 0 70 49">
    <g>  
      <path opacity="0.4" d="M65 0.795418L50 0.795419L40 19.8312L40 48.3848L70 48.3848L70 19.8312L55 19.8312L65 0.795418ZM25 0.795422L10 0.795423L5.00671e-06 19.8312L7.62939e-06 48.3848L30 48.3848L30 19.8312L15 19.8312L25 0.795422Z" fill="#F2F2F2"/>
    </g>
  </symbol> 

  <symbol id="quote-right" viewBox="0 0 70 49">
    <g>  
      <path opacity="0.4" d="M5 48.2886H20L30 29.2528V0.699219H0V29.2528H15L5 48.2886ZM45 48.2886H60L70 29.2528V0.699219H40V29.2528H55L45 48.2886Z" fill="#F2F2F2"/>
    </g>
  </symbol> 
  
  <symbol id="logo-footer" viewBox="0 0 153 175">
    <g>
      <path d="M37.9688 34.875C37.9688 36.6042 37.6458 38.0938 37 39.3438C36.375 40.5938 35.5312 41.6562 34.4688 42.5312C33.4062 43.4062 32.1771 44.125 30.7812 44.6875C29.4062 45.2292 27.9688 45.6562 26.4688 45.9688C24.9688 46.2812 23.4583 46.4896 21.9375 46.5938C20.4375 46.6979 19.0312 46.75 17.7188 46.75C16.4271 46.75 15.0833 46.6979 13.6875 46.5938C12.3125 46.5104 10.9375 46.3542 9.5625 46.125C8.1875 45.8958 6.83333 45.5938 5.5 45.2188C4.16667 44.8229 2.90625 44.3333 1.71875 43.75L1.65625 3.5C2.82292 3.02083 4.0625 2.59375 5.375 2.21875C6.6875 1.82292 8.02083 1.5 9.375 1.25C10.75 0.979167 12.1146 0.78125 13.4688 0.65625C14.8229 0.510417 16.1354 0.4375 17.4062 0.4375C18.8854 0.4375 20.375 0.53125 21.875 0.71875C23.3958 0.90625 24.8542 1.21875 26.25 1.65625C27.6458 2.09375 28.9479 2.66667 30.1562 3.375C31.3646 4.0625 32.4167 4.91667 33.3125 5.9375C34.2292 6.95833 34.9375 8.14583 35.4375 9.5C35.9583 10.8542 36.2188 12.4167 36.2188 14.1875C36.2188 15.3542 36.0521 16.4479 35.7188 17.4688C35.3854 18.4896 34.9062 19.4062 34.2812 20.2188C33.6562 21.0312 32.8958 21.7292 32 22.3125C31.1042 22.875 30.0938 23.2917 28.9688 23.5625C30.3229 23.9167 31.5521 24.4375 32.6562 25.125C33.7812 25.8125 34.7292 26.6458 35.5 27.625C36.2917 28.6042 36.8958 29.7083 37.3125 30.9375C37.75 32.1667 37.9688 33.4792 37.9688 34.875ZM22.0938 17.0625C22.0938 16.4583 21.9688 15.9479 21.7188 15.5312C21.4688 15.0938 21.1562 14.7396 20.7812 14.4688C20.4271 14.1979 20.0312 14 19.5938 13.875C19.1771 13.75 18.8021 13.6875 18.4688 13.6875C18.0521 13.6875 17.6458 13.75 17.25 13.875C16.8542 14 16.4688 14.1458 16.0938 14.3125L15.9062 21.25C16.3854 21.25 16.9792 21.2083 17.6875 21.125C18.3958 21.0417 19.0729 20.8646 19.7188 20.5938C20.3854 20.3021 20.9479 19.8854 21.4062 19.3438C21.8646 18.7812 22.0938 18.0208 22.0938 17.0625ZM17.6562 27.25C17.0521 27.25 16.4688 27.3125 15.9062 27.4375L15.7812 34.5625C16.0938 34.625 16.3958 34.6875 16.6875 34.75C17 34.7917 17.3021 34.8125 17.5938 34.8125C18.0312 34.8125 18.5104 34.7708 19.0312 34.6875C19.5521 34.5833 20.0417 34.3958 20.5 34.125C20.9583 33.8333 21.3333 33.4479 21.625 32.9688C21.9375 32.4896 22.0938 31.8542 22.0938 31.0625C22.0938 30.2708 21.9375 29.625 21.625 29.125C21.3333 28.625 20.9688 28.2396 20.5312 27.9688C20.0938 27.6771 19.6146 27.4896 19.0938 27.4062C18.5729 27.3021 18.0938 27.25 17.6562 27.25ZM73.9062 20.75C73.9062 22.5625 73.7812 24.375 73.5312 26.1875C69.9688 26.4167 66.4271 26.7917 62.9062 27.3125C59.3854 27.8125 55.8646 28.3125 52.3438 28.8125C52.8854 30.3125 53.7292 31.5104 54.875 32.4062C56.0417 33.3021 57.4271 33.75 59.0312 33.75C59.8646 33.75 60.7708 33.5938 61.75 33.2812C62.75 32.9688 63.7396 32.5833 64.7188 32.125C65.6979 31.6458 66.6354 31.1354 67.5312 30.5938C68.4271 30.0521 69.1979 29.5625 69.8438 29.125L68.3438 43.3125C67.5312 43.9375 66.6458 44.4688 65.6875 44.9062C64.75 45.3438 63.7708 45.6979 62.75 45.9688C61.7292 46.2396 60.6979 46.4375 59.6562 46.5625C58.6146 46.6875 57.5938 46.75 56.5938 46.75C54.5312 46.75 52.6458 46.4688 50.9375 45.9062C49.2292 45.3438 47.6771 44.5625 46.2812 43.5625C44.9062 42.5417 43.6979 41.3438 42.6562 39.9688C41.6146 38.5938 40.75 37.0938 40.0625 35.4688C39.375 33.8438 38.8542 32.125 38.5 30.3125C38.1458 28.5 37.9688 26.6667 37.9688 24.8125C37.9688 22.875 38.1458 20.9375 38.5 19C38.8542 17.0625 39.3854 15.1979 40.0938 13.4062C40.8229 11.6146 41.7292 9.95833 42.8125 8.4375C43.9167 6.89583 45.1979 5.55208 46.6562 4.40625C48.1146 3.26042 49.7604 2.36458 51.5938 1.71875C53.4479 1.07292 55.4896 0.75 57.7188 0.75C59.5729 0.75 61.2604 1.01042 62.7812 1.53125C64.3229 2.03125 65.6875 2.73958 66.875 3.65625C68.0833 4.55208 69.125 5.625 70 6.875C70.8958 8.125 71.625 9.5 72.1875 11C72.7708 12.4792 73.1979 14.0521 73.4688 15.7188C73.7604 17.3646 73.9062 19.0417 73.9062 20.75ZM61.4062 19.125C61.4062 18.5417 61.3438 17.9479 61.2188 17.3438C61.0938 16.7188 60.8854 16.1562 60.5938 15.6562C60.3229 15.1562 59.9583 14.75 59.5 14.4375C59.0417 14.1042 58.4688 13.9375 57.7812 13.9375C56.9479 13.9375 56.2083 14.1667 55.5625 14.625C54.9375 15.0625 54.3958 15.625 53.9375 16.3125C53.4792 16.9792 53.1042 17.7083 52.8125 18.5C52.5208 19.2917 52.3021 20.0208 52.1562 20.6875L61.4062 19.8125V19.125ZM108 30C108 32.8542 107.5 35.3229 106.5 37.4062C105.521 39.4688 104.167 41.1771 102.438 42.5312C100.729 43.8646 98.7188 44.8542 96.4062 45.5C94.1146 46.125 91.6458 46.4375 89 46.4375C87.9792 46.4375 86.8542 46.3021 85.625 46.0312C84.4167 45.7604 83.1875 45.4271 81.9375 45.0312C80.6875 44.6146 79.4792 44.1771 78.3125 43.7188C77.1667 43.2396 76.1458 42.7917 75.25 42.375L76.625 30.125C78.3958 31.1875 80.3542 32 82.5 32.5625C84.6667 33.1042 86.7917 33.375 88.875 33.375C89.2708 33.375 89.75 33.3646 90.3125 33.3438C90.875 33.3021 91.4062 33.2083 91.9062 33.0625C92.4271 32.8958 92.8646 32.6562 93.2188 32.3438C93.5729 32.0312 93.75 31.5833 93.75 31C93.75 30.6042 93.625 30.2708 93.375 30C93.125 29.7083 92.8021 29.4792 92.4062 29.3125C92.0104 29.125 91.5625 28.9896 91.0625 28.9062C90.5625 28.8021 90.0729 28.7292 89.5938 28.6875C89.1146 28.6458 88.6667 28.625 88.25 28.625C87.8333 28.625 87.5 28.625 87.25 28.625C85.4583 28.625 83.8229 28.3438 82.3438 27.7812C80.8854 27.2188 79.625 26.4271 78.5625 25.4062C77.5208 24.3646 76.7083 23.1146 76.125 21.6562C75.5417 20.1771 75.25 18.5417 75.25 16.75C75.25 14.2917 75.7396 12.0938 76.7188 10.1562C77.7188 8.19792 79.0417 6.54167 80.6875 5.1875C82.3542 3.8125 84.2604 2.76042 86.4062 2.03125C88.5521 1.30208 90.7708 0.9375 93.0625 0.9375C94.0833 0.9375 95.1354 0.979167 96.2188 1.0625C97.3021 1.125 98.375 1.25 99.4375 1.4375C100.521 1.625 101.573 1.86458 102.594 2.15625C103.615 2.44792 104.583 2.8125 105.5 3.25L104.312 15.9375C102.896 15.4583 101.406 15.0625 99.8438 14.75C98.3021 14.4167 96.7917 14.25 95.3125 14.25C95.0417 14.25 94.6875 14.2604 94.25 14.2812C93.8333 14.2812 93.3854 14.3125 92.9062 14.375C92.4479 14.4167 91.9792 14.4896 91.5 14.5938C91.0208 14.6979 90.5938 14.8438 90.2188 15.0312C89.8438 15.1979 89.5417 15.4271 89.3125 15.7188C89.0833 16.0104 88.9792 16.3542 89 16.75C89.0208 17.2083 89.1875 17.5625 89.5 17.8125C89.8333 18.0625 90.25 18.25 90.75 18.375C91.2708 18.4792 91.8333 18.5312 92.4375 18.5312C93.0625 18.5312 93.6771 18.5208 94.2812 18.5C94.8854 18.4583 95.4479 18.4271 95.9688 18.4062C96.4896 18.3646 96.9167 18.3542 97.25 18.375C98.9167 18.4792 100.417 18.8333 101.75 19.4375C103.083 20.0417 104.208 20.8438 105.125 21.8438C106.062 22.8438 106.771 24.0417 107.25 25.4375C107.75 26.8125 108 28.3333 108 30ZM142.375 1.9375L142.062 15.1875L132.75 15.5625L131.625 44.5625L118.438 45.25L117.25 16.25L107.938 16.75L108.312 2L142.375 1.9375ZM38 145.188C38 147.208 37.6979 149 37.0938 150.562C36.4896 152.125 35.6562 153.5 34.5938 154.688C33.5521 155.854 32.3229 156.844 30.9062 157.656C29.4896 158.448 27.9688 159.104 26.3438 159.625C24.7396 160.125 23.0729 160.5 21.3438 160.75C19.6146 160.979 17.9167 161.104 16.25 161.125V174.438H1.6875C1.6875 172.062 1.6875 169.75 1.6875 167.5C1.70833 165.25 1.71875 163.021 1.71875 160.812C1.73958 158.583 1.75 156.344 1.75 154.094C1.77083 151.844 1.79167 149.521 1.8125 147.125C1.85417 144.583 1.86458 142.042 1.84375 139.5C1.82292 136.958 1.875 134.396 2 131.812C4.66667 131.021 7.33333 130.427 10 130.031C12.6667 129.635 15.4167 129.438 18.25 129.438C19.8542 129.438 21.4583 129.573 23.0625 129.844C24.6667 130.094 26.1979 130.5 27.6562 131.062C29.1354 131.625 30.5 132.333 31.75 133.188C33.0208 134.021 34.1146 135.021 35.0312 136.188C35.9479 137.354 36.6667 138.688 37.1875 140.188C37.7292 141.688 38 143.354 38 145.188ZM24.125 146.25C24.125 144.896 23.7083 143.844 22.875 143.094C22.0625 142.323 21 141.938 19.6875 141.938C19.25 141.938 18.7917 141.979 18.3125 142.062C17.8542 142.125 17.4167 142.208 17 142.312L16.625 151.438C16.9167 151.479 17.1979 151.5 17.4688 151.5C17.7396 151.5 18.0208 151.5 18.3125 151.5C19.0625 151.5 19.7812 151.375 20.4688 151.125C21.1771 150.875 21.8021 150.521 22.3438 150.062C22.8854 149.583 23.3125 149.031 23.625 148.406C23.9583 147.76 24.125 147.042 24.125 146.25ZM67.1875 157.438L65.875 171.312L39.5625 173.375L40.5625 128.75H56.8125L54.5 157.438H67.1875ZM108.062 171.312L92.5625 173.312L90.6875 166.25H83.5625L82 173.312L66.0625 171.75L78.5 130.125L95.875 129.25L108.062 171.312ZM89.5625 156.688L87.1875 145.812L84.875 156.688H89.5625ZM147.5 158.188C147.5 160.542 147.469 162.875 147.406 165.188C147.365 167.479 147.292 169.792 147.188 172.125L129.188 171.812C129.812 168.125 130.354 164.448 130.812 160.781C131.271 157.094 131.5 153.375 131.5 149.625C131.5 149.354 131.49 148.917 131.469 148.312C131.448 147.708 131.406 147.031 131.344 146.281C131.281 145.51 131.188 144.729 131.062 143.938C130.958 143.125 130.802 142.385 130.594 141.719C130.406 141.052 130.167 140.51 129.875 140.094C129.604 139.656 129.271 139.438 128.875 139.438C128.167 139.438 127.562 139.646 127.062 140.062C126.583 140.479 126.177 141.021 125.844 141.688C125.531 142.333 125.281 143.062 125.094 143.875C124.906 144.688 124.76 145.5 124.656 146.312C124.573 147.125 124.51 147.896 124.469 148.625C124.448 149.333 124.438 149.917 124.438 150.375C124.333 154.062 124.25 157.729 124.188 161.375C124.125 165 124.042 168.667 123.938 172.375L108 173.062C108.417 165.708 108.812 158.396 109.188 151.125C109.583 143.854 109.896 136.542 110.125 129.188L124.875 128.438L124.75 133.438C125.333 132.729 125.958 132.062 126.625 131.438C127.312 130.812 128.042 130.281 128.812 129.844C129.583 129.385 130.396 129.031 131.25 128.781C132.125 128.51 133.042 128.375 134 128.375C135.771 128.375 137.323 128.667 138.656 129.25C139.99 129.833 141.135 130.625 142.094 131.625C143.052 132.625 143.854 133.812 144.5 135.188C145.146 136.542 145.667 137.99 146.062 139.531C146.458 141.073 146.76 142.688 146.969 144.375C147.177 146.042 147.312 147.688 147.375 149.312C147.458 150.938 147.5 152.51 147.5 154.031C147.5 155.552 147.5 156.938 147.5 158.188Z" fill="white"/>
      <path d="M34.6875 65.9375L34.375 79.1875L25.0625 79.5625L23.9375 108.562L10.75 109.25L9.5625 80.25L0.25 80.75L0.625 66L34.6875 65.9375ZM74.4688 86.0625C74.4688 87.9583 74.25 89.7917 73.8125 91.5625C73.375 93.3125 72.7396 94.9583 71.9062 96.5C71.0938 98.0417 70.0938 99.4583 68.9062 100.75C67.7396 102.021 66.4167 103.115 64.9375 104.031C63.4792 104.948 61.8854 105.667 60.1562 106.188C58.4271 106.688 56.5938 106.938 54.6562 106.938C52.7812 106.938 50.9896 106.698 49.2812 106.219C47.5938 105.74 46.0104 105.073 44.5312 104.219C43.0521 103.344 41.7083 102.302 40.5 101.094C39.3125 99.8646 38.2917 98.5104 37.4375 97.0312C36.6042 95.5312 35.9479 93.9271 35.4688 92.2188C35.0104 90.5104 34.7812 88.7292 34.7812 86.875C34.7812 85.0625 35 83.2917 35.4375 81.5625C35.875 79.8125 36.5 78.1667 37.3125 76.625C38.1458 75.0833 39.1458 73.6667 40.3125 72.375C41.4792 71.0833 42.7812 69.9688 44.2188 69.0312C45.6771 68.0938 47.25 67.3646 48.9375 66.8438C50.625 66.3229 52.4062 66.0625 54.2812 66.0625C57.3021 66.0625 60.0521 66.5312 62.5312 67.4688C65.0312 68.4062 67.1562 69.75 68.9062 71.5C70.6771 73.2292 72.0417 75.3333 73 77.8125C73.9792 80.2708 74.4688 83.0208 74.4688 86.0625ZM60.5938 86.875C60.5938 85.9792 60.4583 85.1146 60.1875 84.2812C59.9375 83.4271 59.5625 82.6771 59.0625 82.0312C58.5625 81.3646 57.9375 80.8333 57.1875 80.4375C56.4583 80.0208 55.6146 79.8125 54.6562 79.8125C53.6771 79.8125 52.8021 79.9896 52.0312 80.3438C51.2604 80.6979 50.5938 81.1875 50.0312 81.8125C49.4896 82.4167 49.0729 83.1354 48.7812 83.9688C48.4896 84.7812 48.3438 85.6458 48.3438 86.5625C48.3438 87.4375 48.4688 88.3125 48.7188 89.1875C48.9688 90.0625 49.3438 90.8542 49.8438 91.5625C50.3438 92.2708 50.9583 92.8438 51.6875 93.2812C52.4375 93.7188 53.3021 93.9375 54.2812 93.9375C55.2604 93.9375 56.1354 93.75 56.9062 93.375C57.6979 92.9792 58.3646 92.4583 58.9062 91.8125C59.4479 91.1458 59.8646 90.3854 60.1562 89.5312C60.4479 88.6771 60.5938 87.7917 60.5938 86.875ZM113.906 66C112.969 73.3333 112.167 80.6354 111.5 87.9062C110.833 95.1562 110.198 102.458 109.594 109.812L96.7812 110.75L97.3438 105.938C96.9271 106.417 96.4375 106.833 95.875 107.188C95.3333 107.542 94.75 107.833 94.125 108.062C93.5 108.271 92.8542 108.427 92.1875 108.531C91.5208 108.615 90.8854 108.646 90.2812 108.625C88.8646 108.604 87.5312 108.333 86.2812 107.812C85.0312 107.271 83.8854 106.562 82.8438 105.688C81.8021 104.792 80.8646 103.76 80.0312 102.594C79.1979 101.406 78.4896 100.167 77.9062 98.875C77.3438 97.5625 76.9062 96.2292 76.5938 94.875C76.3021 93.5208 76.1562 92.2083 76.1562 90.9375C76.1562 89.0625 76.1875 87.125 76.25 85.125C76.3333 83.1042 76.4688 81.0833 76.6562 79.0625C76.8438 77.0417 77.0833 75.0417 77.375 73.0625C77.6875 71.0833 78.0729 69.1875 78.5312 67.375C81.0729 67.5 83.625 67.6146 86.1875 67.7188C88.75 67.8229 91.3021 67.8542 93.8438 67.8125C93.3646 69.625 92.8854 71.4479 92.4062 73.2812C91.9479 75.0938 91.5312 76.9271 91.1562 78.7812C90.7812 80.6146 90.4792 82.4583 90.25 84.3125C90.0208 86.1667 89.9062 88.0417 89.9062 89.9375C89.9062 90.375 89.9271 91 89.9688 91.8125C90.0104 92.625 90.1146 93.4271 90.2812 94.2188C90.4688 95.0104 90.7396 95.7083 91.0938 96.3125C91.4688 96.8958 91.9896 97.1875 92.6562 97.1875C93.4479 97.1875 94.1562 96.8542 94.7812 96.1875C95.4062 95.5 95.9583 94.5833 96.4375 93.4375C96.9167 92.2917 97.3229 90.9688 97.6562 89.4688C98.0104 87.9688 98.3021 86.4062 98.5312 84.7812C98.7812 83.1354 98.9792 81.4792 99.125 79.8125C99.2708 78.1458 99.375 76.5833 99.4375 75.125C99.5208 73.6458 99.5729 72.3229 99.5938 71.1562C99.6354 69.9896 99.6562 69.0833 99.6562 68.4375C99.6562 68.0208 99.6458 67.6146 99.625 67.2188C99.6042 66.8229 99.5729 66.4167 99.5312 66C100.885 66.0417 102.229 66.0729 103.562 66.0938C104.896 66.1146 106.24 66.125 107.594 66.125C108.635 66.125 109.677 66.125 110.719 66.125C111.781 66.1042 112.844 66.0625 113.906 66ZM152.406 79.875C152.406 81.5 152.26 82.9792 151.969 84.3125C151.698 85.625 151.26 86.8333 150.656 87.9375C150.052 89.0417 149.271 90.0625 148.312 91C147.354 91.9375 146.198 92.8333 144.844 93.6875L152.281 106.938L138.219 109.688L133.406 96.375L129.531 96.5L128.969 109.5H115.531C115.635 104.75 115.729 100.021 115.812 95.3125C115.917 90.6042 116.031 85.875 116.156 81.125C116.198 78.7292 116.24 76.3542 116.281 74C116.323 71.6458 116.406 69.2708 116.531 66.875C117.99 66.3333 119.427 65.8854 120.844 65.5312C122.26 65.1771 123.677 64.9062 125.094 64.7188C126.531 64.5104 127.979 64.375 129.438 64.3125C130.917 64.2292 132.427 64.1875 133.969 64.1875C136.344 64.1875 138.635 64.5208 140.844 65.1875C143.073 65.8333 145.042 66.8125 146.75 68.125C148.458 69.4375 149.823 71.0729 150.844 73.0312C151.885 74.9896 152.406 77.2708 152.406 79.875ZM138.406 80.875C138.406 80 138.281 79.1979 138.031 78.4688C137.802 77.7396 137.448 77.1146 136.969 76.5938C136.51 76.0521 135.927 75.6354 135.219 75.3438C134.531 75.0312 133.719 74.875 132.781 74.875C132.365 74.875 131.958 74.9062 131.562 74.9688C131.167 75.0104 130.781 75.0833 130.406 75.1875L129.906 86.8125H130.656C131.552 86.8125 132.458 86.6979 133.375 86.4688C134.312 86.2396 135.146 85.8854 135.875 85.4062C136.625 84.9271 137.229 84.3125 137.688 83.5625C138.167 82.8125 138.406 81.9167 138.406 80.875Z" fill="#EC1F46"/>
    </g>
  </symbol>

  <symbol id="fb" viewBox="0 0 20 20">
    <g>
      <path d="M10.001 0.00195312C4.47895 0.00195312 0.00195312 4.47895 0.00195312 10.001C0.00195312 14.991 3.65795 19.127 8.43895 19.88V12.892H5.89895V10.001H8.43895V7.79795C8.43895 5.28995 9.93195 3.90695 12.215 3.90695C13.309 3.90695 14.455 4.10195 14.455 4.10195V6.56095H13.191C11.951 6.56095 11.563 7.33295 11.563 8.12395V9.99895H14.334L13.891 12.89H11.563V19.878C16.344 19.129 20 14.992 20 10.001C20 4.47895 15.523 0.00195312 10.001 0.00195312Z" fill="#BDBDBD"/>
    </g>
  </symbol>

  <symbol id="location-footer" viewBox="0 0 14 20">
    <g>
      <path d="M7 0C3.13 0 0 3.13 0 7C0 11.17 4.42 16.92 6.24 19.11C6.64 19.59 7.37 19.59 7.77 19.11C9.58 16.92 14 11.17 14 7C14 3.13 10.87 0 7 0ZM7 9.5C6.33696 9.5 5.70107 9.23661 5.23223 8.76777C4.76339 8.29893 4.5 7.66304 4.5 7C4.5 6.33696 4.76339 5.70107 5.23223 5.23223C5.70107 4.76339 6.33696 4.5 7 4.5C7.66304 4.5 8.29893 4.76339 8.76777 5.23223C9.23661 5.70107 9.5 6.33696 9.5 7C9.5 7.66304 9.23661 8.29893 8.76777 8.76777C8.29893 9.23661 7.66304 9.5 7 9.5Z" fill="#BDBDBD"/>
    </g>
  </symbol>

  <symbol id="call-footer" viewBox="0 0 20 20">
    <g>
      <path d="M17.1667 9.54079H19.0834C19.0834 4.62454 15.3717 0.916748 10.4488 0.916748V2.83341C14.3415 2.83341 17.1667 5.65379 17.1667 9.54079Z" fill="#BDBDBD"/>
      <path d="M10.4584 6.66672C12.4737 6.66672 13.3334 7.52635 13.3334 9.54172H15.25C15.25 6.4511 13.549 4.75006 10.4584 4.75006V6.66672ZM13.7378 11.8829C13.5536 11.7156 13.3116 11.6263 13.0629 11.634C12.8142 11.6417 12.5782 11.7457 12.4047 11.9241L10.1114 14.2826C9.55944 14.1772 8.44969 13.8312 7.30736 12.6918C6.16503 11.5485 5.81907 10.4359 5.71653 9.88768L8.07307 7.59343C8.25171 7.4201 8.35591 7.18405 8.3636 6.93526C8.37129 6.68646 8.28187 6.44443 8.11428 6.26039L4.57323 2.36668C4.40557 2.18206 4.17254 2.07008 3.92363 2.05451C3.67473 2.03895 3.42956 2.12102 3.24019 2.28331L1.16061 4.06677C0.994924 4.23305 0.896032 4.45436 0.882693 4.68872C0.868318 4.92831 0.594234 10.6036 4.9949 15.0061C8.83398 18.8443 13.6429 19.1251 14.9673 19.1251C15.1609 19.1251 15.2797 19.1193 15.3114 19.1174C15.5457 19.1043 15.7669 19.0049 15.9324 18.8385L17.7149 16.758C17.8773 16.5687 17.9595 16.3236 17.9441 16.0747C17.9287 15.8258 17.8169 15.5927 17.6324 15.4249L13.7378 11.8829Z" fill="#BDBDBD"/>
    </g>
  </symbol>

  <symbol id="mail-footer" viewBox="0 0 18 20">
    <g>
      <path d="M15.6667 0.333252H2.33341C1.41675 0.333252 0.675081 1.08325 0.675081 1.99992L0.666748 11.9999C0.666748 12.9166 1.41675 13.6666 2.33341 13.6666H15.6667C16.5834 13.6666 17.3334 12.9166 17.3334 11.9999V1.99992C17.3334 1.08325 16.5834 0.333252 15.6667 0.333252ZM15.3334 3.87492L9.44175 7.55825C9.17508 7.72492 8.82508 7.72492 8.55842 7.55825L2.66675 3.87492C2.58319 3.82801 2.51001 3.76464 2.45166 3.68863C2.3933 3.61262 2.35097 3.52557 2.32723 3.43273C2.30349 3.33989 2.29883 3.2432 2.31355 3.14851C2.32826 3.05382 2.36203 2.9631 2.41282 2.88184C2.4636 2.80058 2.53035 2.73046 2.60902 2.67575C2.68769 2.62103 2.77664 2.58284 2.87049 2.5635C2.96435 2.54416 3.06115 2.54406 3.15504 2.56321C3.24894 2.58236 3.33797 2.62036 3.41675 2.67492L9.00008 6.16658L14.5834 2.67492C14.6622 2.62036 14.7512 2.58236 14.8451 2.56321C14.939 2.54406 15.0358 2.54416 15.1297 2.5635C15.2235 2.58284 15.3125 2.62103 15.3911 2.67575C15.4698 2.73046 15.5366 2.80058 15.5873 2.88184C15.6381 2.9631 15.6719 3.05382 15.6866 3.14851C15.7013 3.2432 15.6967 3.33989 15.6729 3.43273C15.6492 3.52557 15.6069 3.61262 15.5485 3.68863C15.4902 3.76464 15.417 3.82801 15.3334 3.87492Z" fill="#BDBDBD"/>
    </g>
  </symbol>

  <symbol id="youtube" viewBox="0 0 21 21">
    <g>
      <path d="M12.1831 10.3247L9.82477 9.22429C9.61897 9.12874 9.44992 9.23584 9.44992 9.46369V11.5364C9.44992 11.7642 9.61897 11.8713 9.82477 11.7758L12.182 10.6754C12.3889 10.5788 12.3889 10.4213 12.1831 10.3247ZM10.4999 0.420044C4.93282 0.420044 0.419922 4.93294 0.419922 10.5C0.419922 16.0671 4.93282 20.58 10.4999 20.58C16.067 20.58 20.5799 16.0671 20.5799 10.5C20.5799 4.93294 16.067 0.420044 10.4999 0.420044ZM10.4999 14.595C5.34022 14.595 5.24992 14.1299 5.24992 10.5C5.24992 6.87019 5.34022 6.40504 10.4999 6.40504C15.6596 6.40504 15.7499 6.87019 15.7499 10.5C15.7499 14.1299 15.6596 14.595 10.4999 14.595Z" fill="#BDBDBD"/>
    </g>
  </symbol>

  <symbol id="instagram" viewBox="0 0 20 20">
    <g>
      <path d="M10 20C8.64583 20 7.35026 19.7363 6.11328 19.209C4.8763 18.6816 3.81185 17.972 2.91992 17.0801C2.02799 16.1882 1.31836 15.1237 0.791016 13.8867C0.263672 12.6497 0 11.3542 0 10C0 8.64583 0.263672 7.35026 0.791016 6.11328C1.31836 4.8763 2.02799 3.81185 2.91992 2.91992C3.81185 2.02799 4.8763 1.31836 6.11328 0.791016C7.35026 0.263672 8.64583 0 10 0C11.3542 0 12.6497 0.263672 13.8867 0.791016C15.1237 1.31836 16.1882 2.02799 17.0801 2.91992C17.972 3.81185 18.6816 4.8763 19.209 6.11328C19.7363 7.35026 20 8.64583 20 10C20 11.3542 19.7363 12.6497 19.209 13.8867C18.6816 15.1237 17.972 16.1882 17.0801 17.0801C16.1882 17.972 15.1237 18.6816 13.8867 19.209C12.6497 19.7363 11.3542 20 10 20ZM15 6.25C15 5.91146 14.8796 5.61849 14.6387 5.37109C14.3978 5.1237 14.1016 5 13.75 5H6.25C5.91146 5 5.61849 5.1237 5.37109 5.37109C5.1237 5.61849 5 5.91146 5 6.25V7.5H7.22656C7.98177 6.66667 8.90625 6.25 10 6.25C11.0938 6.25 12.0182 6.66667 12.7734 7.5H15V6.25ZM7.5 10C7.5 10.6901 7.74414 11.2793 8.23242 11.7676C8.7207 12.2559 9.3099 12.5 10 12.5C10.6901 12.5 11.2793 12.2559 11.7676 11.7676C12.2559 11.2793 12.5 10.6901 12.5 10C12.5 9.3099 12.2559 8.7207 11.7676 8.23242C11.2793 7.74414 10.6901 7.5 10 7.5C9.3099 7.5 8.7207 7.74414 8.23242 8.23242C7.74414 8.7207 7.5 9.3099 7.5 10ZM15 8.75H13.5156C13.6719 9.17969 13.75 9.59635 13.75 10C13.75 11.0417 13.3854 11.9271 12.6562 12.6562C11.9271 13.3854 11.0417 13.75 10 13.75C8.95833 13.75 8.07292 13.3854 7.34375 12.6562C6.61458 11.9271 6.25 11.0417 6.25 10C6.25 9.59635 6.32812 9.17969 6.48438 8.75H5V13.75C5 14.1016 5.12044 14.3978 5.36133 14.6387C5.60221 14.8796 5.89844 15 6.25 15H13.75C14.1016 15 14.3978 14.8796 14.6387 14.6387C14.8796 14.3978 15 14.1016 15 13.75V8.75Z" fill="#BDBDBD"/>
    </g>
  </symbol>
</svg>